<?xml version="1.0" encoding="UTF-8"?>
<svg id="Layer_2" overflow="visible" data-name="Layer 2" xmlns="http://www.w3.org/2000/svg" viewBox="0 0 5.57 18.8">
  <defs>
    <style>
      .cls-1 {
        fill: #231f20;
      }

      .cls-2 {
        fill: #fdee0d;
      }

      .cls-3 {
        fill: #f6891f;
      }

      .cls-3, .cls-4 {
        isolation: isolate;
      }

      .cls-4 {
        fill: #f6a021;
      }

      .cls-5 {
        fill: #fcf5a6;
      }
    </style>
  </defs>
  <g id="Layer_1-2" data-name="Layer 1">
    <g>
      <path class="cls-1" d="M4.93,17.9c.4-.3.6-.7.5-1.1h.1c0-.2.1-.5,0-.8-.5-5.2-.7-7.8-1.1-13-.1-1.4-.8-3-1.6-3s-1.5,1.6-1.6,3c-.5,5.2-.7,7.8-1.1,13v.41c-.05.13-.09.26-.1.39,0,.4.2.8.5,1.1l.1-.1c.2.6,1.1,1,2.1,1s1.9-.4,2.1-1l.1.1Z"/>
      <path class="cls-2" d="M2.8,14.9c1.4,0,2.6.9,2.7,1.9h0c0-.2.1-.5,0-.8-.5-5.2-.7-7.8-1.1-13-.1-1.4-.8-3-1.6-3s-1.5,1.6-1.6,3C.7,8.2.5,10.8.1,16v.8H.1c0-1,1.3-1.9,2.7-1.9ZM2.3,14.2c-.3,0-.6.1-.9.2,0-1,.3-5.9.3-6.4,0-.3.1-.6.5-.7v6.9h.1ZM2.8,14.1h-.2v-6.9h.2c.6,0,.9.2.9.6,0,.5.4,5.6.4,6.6-.4-.2-.9-.3-1.4-.3h.1ZM1.6,4.6c0-.5.2-.9.4-1.3v-1.6c0-.5.3-1,.7-1s.7.5.7,1v1.6c.2.3.4.8.4,1.3,0,1,0,1.6.1,2.5-.3-.2-.8-.4-1.4-.4s-1.1.2-1.4.4c0-.9,0-1.5.1-2.5h.4Z"/>
      <path class="cls-5" d="M4.2,7.1c0-.9,0-1.5-.1-2.5,0-.5-.2-.9-.4-1.3v-1.6c0-.5-.3-1-.7-1s-.7.5-.7,1v1.6c-.2.3-.4.8-.4,1.3,0,1,0,1.6-.1,2.5.3-.2.8-.4,1.4-.4s1.1.2,1.4.4h-.4Z"/>
      <path class="cls-3" d="M5.4,16.8h0c0-1-1.3-1.9-2.7-1.9s-2.6.9-2.7,1.9h0c0,.4.2.8.5,1.1v-.4c0-.8,1-1.5,2.2-1.5s2.1.7,2.2,1.5v.4c.4-.3.6-.7.5-1.1Z"/>
      <path class="cls-4" d="M5,17.4c0-.8-1-1.5-2.2-1.5s-2.1.7-2.2,1.5v.4c.2.6,1.1,1,2.1,1s1.9-.4,2.1-1v-.4h.2Z"/>
      <path class="cls-5" d="M2.8,7.1h-.2v6.9h.2c.5,0,1,.1,1.4.3,0-1-.4-6.1-.4-6.6,0-.4-.3-.6-.9-.6h-.1Z"/>
      <path class="cls-5" d="M1.8,8c0,.5-.3,5.4-.3,6.4.3-.1.5-.2.9-.2v-6.9c-.4.2-.5.4-.5.7h-.1Z"/>
    </g>
  </g>
</svg>