<?xml version="1.0" encoding="UTF-8"?>
<svg id="Layer_2" overflow="visible" data-name="Layer 2" xmlns="http://www.w3.org/2000/svg" viewBox="0 0 16.02 32.9">
  <defs>
    <style>
      .cls-1, .cls-2 {
        fill: #231f20;
      }

      .cls-3 {
        fill: #5690cc;
      }

      .cls-4 {
        fill: #f6891f;
      }

      .cls-4, .cls-2 {
        isolation: isolate;
      }

      .cls-5 {
        fill: #b0d237;
      }

      .cls-6 {
        fill: #383938;
      }

      .cls-7 {
        fill: #febd30;
      }

      .cls-8 {
        fill: #81b9e5;
      }

      .cls-9 {
        fill: #7d296b;
      }
    </style>
  </defs>
  <g id="Layer_1-2" data-name="Layer 1">
    <g>
      <path class="cls-2" d="M.72,32.9v-9.04l-.24-2.4c-.04-.09-.08-.19-.11-.29-.1-.28-.16-.63-.16-.98v-.17l.03-.26c.08-.51.28-.97.55-1.36l.67-.51.2-.17.04-.2c.19-.12.4-.23.62-.31h.14s-.09-.02-.09-.02c.06-.02.11-.04.17-.06l-.31-3.89c-.17-.15-.33-.31-.49-.48-.69-.79-1.09-1.71-1.13-2.62l-.62-4.99.08-.47.04-.4v-.49c0-.75.26-1.38.41-1.69l.15-.29.23-.23s.1-.1.16-.15c.43-.53,1-.92,1.7-1.16.52-.18,1.11-.27,1.75-.27h.15c.65.05,1.22.09,1.75.11.51.02.98.04,1.45.04s.94-.01,1.45-.04c.53-.02,1.1-.06,1.75-.11h.15c.59,0,1.16.09,1.68.27.63.22,1.18.56,1.63,1.01.21.21.4.45.56.72.17.29.29.59.38.89.09.32.13.65.12.99,0,.22-.03.45-.08.66v.69l-.02.14c-.04.27-.11.55-.2.83-.04.11-.08.23-.13.34l-.45,3.59c-.01.3-.07.6-.16.92-.03.09-.07.2-.12.31-.08.19-.16.37-.26.55-.06.11-.12.2-.18.28-.04.07-.09.13-.13.19l-.77,10c.72.26,1.33.75,1.72,1.4h1.2v9.1H.72Z"/>
      <g>
        <path class="cls-1" d="M13.11,24.78c0-.8-.6-1.4-1.4-1.4s-.8.2-1,.5M10.71,23.78l1-12.9.02-.1c.42-.41.78-1.01.78-1.6l.5-4c.15-.28.26-.59.3-.9v-.8c.2-.6,0-1.2-.4-1.6-.5-.5-1.2-.7-1.9-.7-2.7.2-4,.2-6.7,0-.8,0-1.5.2-1.9.7,0,.1-.2.2-.3.3-.1.2-.2.5-.2.8v.6l-.06.56-.04.24.6,4.8c0,.7.5,1.4,1,1.8.2.13.36.22.53.29l.57,7.11-.1.1s-.07,0-.1,0h0c-.1,0-.12-.02-.2-.1-.2-.2-.5-.2-.8-.2-.7,0-1.2.5-1.3,1.1v.1c0,.26.09.48.22.67l.48,4.93h-.2v5.1h11.3v-5.1h-.5l-.2-.2"/>
        <ellipse class="cls-3" cx="7.91" cy="4.38" rx="2.8" ry=".8"/>
        <path class="cls-2" d="M10.61,26.18s0-.1-.1-.2c-.2,1.6-1.1,2.9-2.3,3.1h4.6v-.6c-.2.3-.6.5-1.1.5-.8,0-1.4-.6-1.4-1.4s0-.2,0-.4v-.4c0-.3,0-.5.2-.8l.1.2Z"/>
        <path class="cls-2" d="M5.11,26.98c-.2.3-.5.4-.9.4h-.3c-.3,0-.6-.1-.8-.4v2.1h4.1c-.9-.1-1.7-1-2.1-2.1Z"/>
        <path class="cls-4" d="M13.11,24.78c0,.4-.2.8-.6,1.1.4.2.6.7.6,1.1,0,.8-.6,1.4-1.4,1.4s-1.1-.4-1.3-1v.4c0,.8.6,1.4,1.4,1.4s.8-.2,1.1-.5v.6H3.21v-2.1c.2.2.5.4.8.4h.3c.3,0,.6-.2.9-.4-.1-.4-.2-.7-.2-1.1v-.6.5c0,.5-.3.8-.6.8h-.3c-.2,0-.5-.3-.6-.8l-.4-4.9c-.5-.2-.9-.7-.9-1.2h0l.5,5.1h-.2v5.1h11.3v-5.1h-.5l-.2-.2Z"/>
        <path class="cls-2" d="M4.41,20.38c-.2.3-.6.5-1.1.5s-.3,0-.4,0l.4,4.9c0,.5.3.8.6.8h.3c.2,0,.5-.3.6-.8v-.5l-.3-4.9h-.1Z"/>
        <path class="cls-4" d="M4.31,18.38h-.1l.1.1h0v-.1Z"/>
        <path class="cls-4" d="M11.01,25.88c-.2-.1-.3-.3-.4-.4v.6s0,.1.1.2c0-.1.2-.3.4-.4h-.1Z"/>
        <path class="cls-8" d="M11.21,24.68c0,.3.3.6.6.6s.6-.3.6-.6-.3-.6-.6-.6-.6.3-.6.6Z"/>
        <path class="cls-8" d="M11.71,26.38c-.3,0-.6.3-.6.6s.3.6.6.6.6-.3.6-.6-.3-.6-.6-.6Z"/>
        <path class="cls-7" d="M10.61,25.38c.1.2.2.3.4.4-.1,0-.3.2-.4.4s-.2.5-.2.8v.4c.2.6.7,1,1.3,1s1.4-.6,1.4-1.4-.2-.9-.6-1.1c.3-.2.6-.6.6-1.1h0c0-.8-.6-1.4-1.4-1.4s-.8.2-1,.5v1.6l-.1-.1ZM12.31,24.68c0,.3-.3.6-.6.6s-.6-.3-.6-.6.3-.6.6-.6.6.3.6.6ZM11.71,27.48c-.3,0-.6-.3-.6-.6s.3-.6.6-.6.6.3.6.6-.3.6-.6.6Z"/>
        <circle class="cls-5" cx="3.41" cy="19.58" r=".6"/>
        <path class="cls-7" d="M2.91,20.78h.4c.4,0,.8-.2,1.1-.5v-1.8q-.2,0-.3-.1c-.2-.2-.5-.2-.8-.2-.7,0-1.2.5-1.3,1.1v.1h0c0,.6.4,1,.9,1.2v.2ZM3.91,19.58c0,.3-.3.6-.6.6s-.6-.3-.6-.6.3-.6.6-.6.6.3.6.6Z"/>
        <path class="cls-7" d="M7.71,11.48h-3.1l1.1,14.4c.1,1.4.9,2.6,1.7,2.6h.6c.8,0,1.6-1.2,1.7-2.6l1.1-14.4h-.5c-1.1,0-1.8,0-2.6,0ZM9.81,13.88c0,.6-.5,1.3-1,1.5.5-.2.9,0,.9.7v1.3c0,.4-.2.9-.6,1.2.3.2.4.6.4,1.1-.1,2.3-.2,4.4-.4,6.8,0,1-.5.8-1.1.8h-.6c-.5,0-1,.1-1.1-.8-.1-2.3-.2-4.4-.4-6.8,0-.5.1-.9.4-1.1-.3-.3-.5-.7-.6-1.2v-1.3c0-.6.3-.8.9-.7-.5-.2-1-.9-1-1.5v-1.3c0-.6.4-.8,1-.6,1,.3,1.5.3,2.5,0,.6-.2,1,0,1,.6v1.3h-.3Z"/>
        <path class="cls-1" d="M4.41,20.38l.4,4.9v.6c0,.4.2.8.3,1.1.4,1.2,1.2,2,2.1,2.1h1c1.1-.2,2.1-1.4,2.3-3.1v-.6l.2-1.6,1-12.9c-.3.2-.5.3-.8.4l-1.1,14.4c-.1,1.4-.9,2.6-1.7,2.6h-.6c-.8,0-1.6-1.2-1.7-2.6l-1.1-14.4c-.3,0-.6-.2-.8-.4l.6,7.5h0c0,.1.1,2,.1,2h-.2Z"/>
        <path class="cls-4" d="M8.91,11.98c-1,.3-1.5.3-2.5,0-.6-.2-1,0-1,.6v1.3c0,.6.5,1.3,1,1.5-.5-.2-.9,0-.9.7v1.3c0,.4.2.9.6,1.2-.3.2-.4.6-.4,1.1.1,2.3.2,4.4.4,6.8,0,1,.5.8,1.1.8h.6c.5,0,1,.1,1.1-.8.1-2.3.2-4.4.4-6.8,0-.5-.1-.9-.4-1.1.3-.3.5-.7.6-1.2v-1.3c0-.6-.3-.8-.9-.7.5-.2,1-.9,1-1.5v-1.3c0-.6-.4-.8-1-.6h.3Z"/>
        <path class="cls-4" d="M7.71,6.78h-3c-.6,0-1.1-.3-1.6-.6l.4,2.9c.1.9.8,1.6,1.6,1.6h5.3c.8,0,1.5-.8,1.6-1.6l.4-2.9c-.5.4-1,.6-1.6.6h-3.1Z"/>
        <path class="cls-1" d="M4.51,11.38h6.2c.3,0,.6-.2.8-.4.5-.4,1-1.1,1-1.8l.7-5.6v.8c-.2.7-.6,1.3-1.1,1.8l-.4,2.9c-.1.9-.9,1.6-1.6,1.6h-5.3c-.8,0-1.5-.8-1.6-1.6l-.4-2.9c-.5-.4-.9-1.1-1-1.8l.6,4.8c0,.7.5,1.4,1,1.8.3.2.5.3.8.4h.3Z"/>
        <path class="cls-6" d="M2.81,4.18c.1.9,1,1.7,1.9,1.7h6c.9,0,1.8-.8,1.9-1.7v-.8c.1-.4,0-.7-.2-.9-.3-.3-.8-.5-1.3-.4h-6.9c-.5,0-.9.2-1.2.4-.2.2-.3.6-.3.9v.8h.1ZM5.21,2.68c2,.1,3,.1,5,0,.9,0,1.6.5,1.5,1.2v.6c-.1.7-.9,1.4-1.7,1.4h-4.5c-.8,0-1.6-.7-1.7-1.4v-.6c-.1-.7.6-1.3,1.5-1.2h-.1Z"/>
        <path class="cls-7" d="M3.11,6.08c.5.4,1,.6,1.6.6h6c.6,0,1.1-.3,1.6-.6.5-.4.9-1.1,1-1.8v-.8c.2-.6,0-1.2-.4-1.6-.5-.5-1.2-.7-1.9-.7-2.7.2-4,.2-6.7,0h0c-.8,0-1.5.2-1.9.7,0,.1-.2.2-.3.3-.1.2-.2.5-.2.8v.6l.1.7h0c0,.7.5,1.3,1,1.8h.1ZM4.21,1.98h.1c2,.1,3.3.1,5,0h1.8c.5,0,1,.1,1.3.4.2.2.3.6.3.9v.8c-.2.9-1.1,1.7-2,1.7h-6c-.9,0-1.8-.8-1.9-1.7v-.8c-.1-.4,0-.7.2-.9.3-.3.7-.4,1.2-.4Z"/>
        <path class="cls-7" d="M3.81,4.48c.1.7.9,1.4,1.7,1.4h4.5c.8,0,1.6-.7,1.7-1.4v-.6c.1-.7-.6-1.3-1.5-1.2-2,.1-3,.1-5,0-.9,0-1.6.5-1.5,1.2v.6h.1ZM4.61,3.58c.3-.3.8-.5,1.4-.5h3.5c.6,0,1.1.1,1.4.5.2.2.3.5.2.7v.3c-.2.6-.9,1.1-1.7,1.1h-3.2c-.8,0-1.5-.5-1.7-1.1v-.3c-.1-.3,0-.5.1-.7Z"/>
        <path class="cls-9" d="M5.91,3.88h-.5v.2s.3.3.7.3h3.1c.4,0,.7-.2.7-.3v-.2h-4.1.1Z"/>
        <path class="cls-4" d="M6.11,5.68h3.2c.8,0,1.5-.5,1.7-1.1v-.3c.1-.3,0-.5-.1-.7-.3-.3-.8-.5-1.4-.5h-3.5c-.6,0-1.1.1-1.4.5-.2.2-.3.5-.2.7v.3c.2.6.9,1.1,1.7,1.1ZM10.01,4.18v.2s-.3.3-.7.3h-3.1c-.4,0-.7-.2-.7-.3v-.2h4.6-.1Z"/>
        <path class="cls-4" d="M3.41,19.18c.3,0,.5.2.5.4v-.1c0-.3-.3-.6-.6-.6s-.6.3-.6.6,0,0,0,.1c0-.2.3-.4.5-.4h.2Z"/>
        <path class="cls-4" d="M11.71,24.38c.3,0,.5.2.5.4v-.1c0-.3-.3-.6-.6-.6s-.6.3-.6.6,0,0,0,.1c0-.2.3-.4.5-.4h.2Z"/>
        <path class="cls-4" d="M11.71,26.68c.3,0,.5.2.5.4v-.1c0-.3-.3-.6-.6-.6s-.6.3-.6.6,0,0,0,.1c0-.2.3-.4.5-.4h.2Z"/>
      </g>
    </g>
  </g>
</svg>