<?xml version="1.0" encoding="UTF-8"?>
<svg id="Layer_2" overflow="visible" data-name="Layer 2" xmlns="http://www.w3.org/2000/svg" viewBox="0 0 23.04 28.71">
  <defs>
    <style>
      .cls-1 {
        fill: #e9773a;
      }

      .cls-2 {
        fill: #231f20;
      }

      .cls-3 {
        fill: #b0d237;
      }

      .cls-4 {
        fill: #481a1e;
      }

      .cls-5 {
        fill: #e9008a;
      }

      .cls-6 {
        fill: #29abe2;
      }

      .cls-7 {
        fill: #fff200;
      }
    </style>
  </defs>
  <g id="Layer_1-2" data-name="Layer 1">
    <g>
      <g>
        <path class="cls-2" d="M7.77,28.71l-.14-.02c-1.76-.25-3.02-1.77-3.02-3.63,0-.24,0-.47.03-.7l.02-.11c.19-.93.72-1.72,1.45-2.25l.18-1.04c-1.81-1.43-2.97-3.53-3.17-5.86l-.02-.32c-.01-.13-.02-.27-.02-.4v-.14c0-1.69.49-3.3,1.41-4.67-.19-.22-.37-.44-.56-.66-.49-.57-.93-1.1-1.3-1.56-1.51-.46-2.64-1.88-2.64-3.52v-.16C0,1.67,1.69,0,3.67,0s3.67,1.68,3.67,3.67v.25c0,.11-.01.21-.02.31.41.53.97,1.2,1.49,1.81.04.05.08.1.12.15.84-.27,1.71-.41,2.59-.41.37,0,.74.02,1.11.07,0,0,.45-.66.63-.92,0-.16,0-.32,0-.49v-.14c0-1.99,1.68-3.67,3.67-3.67s3.67,1.68,3.67,3.67v.16c0,1.66-1.18,3.09-2.72,3.53-.09.12-.18.25-.27.39,1.49,1.55,2.35,3.62,2.35,5.83v.14c0,.12,0,.25-.02.37-.01.17-.02.32-.04.48-.04.47-.13.94-.26,1.4,1.89.14,3.41,1.76,3.41,3.66v.17c-.02,1.95-1.72,3.65-3.67,3.65-1.47,0-2.75-.88-3.29-2.17l-.31-.28c-1.13.66-2.39,1.06-3.7,1.14l-.39,1.75c.04.3.04.57.04.75v.25c-.04.95-.55,1.86-1.38,2.48-.8.7-1.68.7-2.16.7h-.4Z"/>
        <path class="cls-2" d="M19.37,18.59s.05,0,.07,0c.02,0,.04,0,.06,0h-.13Z"/>
        <path class="cls-2" d="M19.37,18.59s.05,0,.07,0c.02,0,.04,0,.06,0h-.13Z"/>
      </g>
      <g>
        <path class="cls-2" d="M19.32,18.97c-.47.03-.83.25-1.19.6l-.08-.06-1.48-1.31c.76-1.1,1.21-2.43,1.21-3.86,0-2.46-1.31-4.59-3.27-5.79.75-1.14,1.4-2.15,2.04-2.92h.14c.95,0,1.77-.82,1.77-1.77s-.82-1.77-1.77-1.77-1.77.82-1.77,1.77,0,.68.27.95c-.6.84-1.32,1.91-2.13,3.08-.66-.21-1.35-.36-2.09-.36-1.22,0-2.35.35-3.34.91-1.27-1.56-2.92-3.45-3.46-4.31.14-.27.27-.54.27-.95,0-.95-.82-1.77-1.77-1.77s-1.77.82-1.77,1.77.82,1.77,1.77,1.77v-.14c.57.91,2.45,2.94,3.69,4.55-1.34,1.24-2.2,3.01-2.2,4.98,0,2.61,1.48,4.85,3.64,5.99l-.64,3.67c-.68.14-1.22.68-1.36,1.36-.14.95.41,1.91,1.36,2.04h.27c.41,0,.68,0,.95-.27.41-.27.68-.68.68-1.09s0-.95-.27-1.22l.27-.14.81-3.65c.36.06.72.11,1.09.11,1.79,0,3.41-.71,4.63-1.84l2.04,1.84c.14.82.82,1.36,1.63,1.36s1.77-.82,1.77-1.77-.79-1.73-1.72-1.76Z"/>
        <path class="cls-4" d="M19.4,18.81c-.54,0-.95.27-1.36.68l.54.41c.14-.27.41-.41.82-.41.54,0,1.09.54,1.09,1.09s-.54,1.09-1.09,1.09-.54,0-.68-.27l.27-.41h-.27l-3.95-3.4v.82l2.86,2.59c.14.82.82,1.36,1.63,1.36s1.77-.82,1.77-1.77-.82-1.77-1.77-1.77h.14Z"/>
        <path class="cls-1" d="M19.13,20.17l-.54-.41-.54-.41-3.4-2.99v1.09l3.95,3.4h.27c.14,0,0,0,0,0,.14,0,.27,0,.41-.14v-.54h-.14Z"/>
        <path class="cls-4" d="M12.6,8.2h.27c1.09-1.63,2.04-2.99,2.72-3.95h0v-.54c0-.54.54-1.09,1.09-1.09s1.09.54,1.09,1.09-.41.95-.82,1.09l-.41-.27c-.68.95-1.5,2.31-2.72,3.95.14,0,.41,0,.54.14.82-1.22,1.5-2.31,2.18-3.13h.14c.95,0,1.77-.82,1.77-1.77s-.82-1.77-1.77-1.77-1.77.82-1.77,1.77,0,.68.27.95c-.68.95-1.5,2.18-2.45,3.54h-.14Z"/>
        <path class="cls-6" d="M16.27,3.84c.14,0,.27.41,0,.54h0l.41.27c.54,0,.82-.54.82-1.09s-.54-1.09-1.09-1.09-1.09.54-1.09,1.09,0,.27,0,.41h0c0-.14.41-.27.54,0l.41-.14Z"/>
        <path class="cls-7" d="M13.69,8.33c1.09-1.63,2.04-2.99,2.72-3.95h0v-.54h-.54v.14c-.68.95-1.63,2.31-2.72,3.95.27,0,.54,0,.82.14l-.27.27Z"/>
        <circle class="cls-4" cx="10.97" cy="14.18" r="6.8"/>
        <circle class="cls-5" cx="11.38" cy="13.37" r="5.44"/>
        <path class="cls-4" d="M9.06,24.53l1.09-4.9c-.14-.14-.27-.27-.54-.41l-1.09,4.76c-.14,0-.41-.27-.68-.27h-.14l1.09-5.03c-.14,0-.41-.14-.54-.27h-.14l-.95,5.44c-.68.14-1.22.68-1.36,1.36-.14.95.41,1.91,1.36,2.04h.27c.41,0,.68,0,.95-.27.41-.27.68-.68.68-1.09s0-.95-.27-1.22h0l.27-.14ZM8.79,25.61c0,.54-.68.95-1.22.95s-.95-.68-.95-1.22.68-.95,1.22-.95.95.68.95,1.22Z"/>
        <path class="cls-4" d="M2.67,4.66c.68,1.09,3.27,3.81,4.35,5.44.14,0,.27,0,.54-.14-.27-1.09-3.67-4.22-4.35-5.31.27,0,.41-.27.68-.41.68,1.09,2.59,4.22,3.67,5.85,0,0,.95-.27.95-.68-1.22-1.63-3.67-4.35-4.35-5.44.14-.27.27-.54.27-.95,0-.95-.82-1.77-1.77-1.77s-1.77.82-1.77,1.77.82,1.77,1.77,1.77,0,0,0,0v-.14ZM1.44,2.89c0-.54.54-1.09,1.09-1.09s1.09.54,1.09,1.09-.54,1.09-1.09,1.09-1.09-.54-1.09-1.09Z"/>
        <path class="cls-6" d="M19.27,20.72s-.27.14-.41.14l-.27.41c.14.14.41.27.68.27.54,0,1.09-.54,1.09-1.09s-.54-1.09-1.09-1.09-.54,0-.82.41l.54.41c.14,0,.27.41,0,.54h.27Z"/>
        <path class="cls-7" d="M8.11,9.42c-1.09-1.63-3.54-4.22-4.22-5.31-.14.14-.41.41-.68.41.68,1.09,3.13,3.54,4.22,5.17.27,0,.54-.14.82-.27h-.14Z"/>
        <circle class="cls-6" cx="2.53" cy="2.89" r="1.09"/>
        <path class="cls-1" d="M8.93,18.67l-1.09,5.03h.14c.27,0,.41.14.68.27l1.09-4.76c-.27-.27-.41-.41-.82-.54Z"/>
        <path class="cls-6" d="M7.84,24.39c-.54,0-1.09.27-1.22.95,0,.54.27,1.09.95,1.22.54,0,1.09-.27,1.22-.95,0-.54-.27-1.09-.95-1.22Z"/>
        <path class="cls-3" d="M12.46,8.88c.27,0,.41,0,.54.27s0,.41-.27.54-.41,0-.54-.27,0-.41.27-.54ZM13.42,10.37c.54-.14.95,0,1.09.27s-.27.54-.82.68-.95,0-1.09-.27.27-.54.82-.68ZM11.38,8.33s-.27,0-.27-.14,0-.27.14-.27.27,0,.27.14,0,.27-.14.27ZM14.78,15.27c-.27,0-.41,0-.54-.27s0-.41.27-.54.41,0,.54.27,0,.41-.27.54ZM13.14,13.1c0-.41.41-.95,1.22-1.09s1.5,0,1.63.27-.41.95-1.22,1.09-1.5,0-1.63-.27Z"/>
      </g>
    </g>
  </g>
</svg>