<?xml version="1.0" encoding="UTF-8"?>
<svg id="Layer_2" overflow="visible" data-name="Layer 2" xmlns="http://www.w3.org/2000/svg" viewBox="0 0 42.43 53.12">
  <defs>
    <style>
      .cls-1 {
        fill: #010101;
      }

      .cls-2 {
        fill: #b0d237;
      }

      .cls-3 {
        fill: #481a1e;
      }

      .cls-4 {
        fill: #e9008a;
      }

      .cls-5 {
        fill: #29abe2;
      }

      .cls-6 {
        fill: #fff200;
      }
    </style>
  </defs>
  <g id="Layer_1-2" data-name="Layer 1">
    <g>
      <path class="cls-1" d="M14.33,53.12l-.18-.03c-.35-.06-.69-.16-1.02-.29-1.64-.64-2.86-2.02-3.26-3.7-.16-.7-.18-1.41-.05-2.12.15-.78.46-1.51.9-2.14.47-.67,1.08-1.2,1.77-1.58l.38-3.17c-1.57-1.31-2.86-2.97-3.77-4.88-.12-.25-.23-.5-.34-.76-.27-.65-.48-1.27-.64-1.88-1.04-1.46-1.77-3.05-2.13-4.65-.25-1.14-.3-2.24-.14-3.27.09-.75.3-1.56.6-2.36.29-.76.67-1.5,1.12-2.2.53-.81,1.15-1.57,1.85-2.25l-.65-.95c-1.02-1.49-1.96-2.85-2.81-4.09-.56-.82-1.08-1.58-1.55-2.29-.07-.01-.13-.02-.2-.04-.68-.14-1.32-.41-1.89-.8-.28-.19-.54-.41-.78-.65-.49-.49-.87-1.05-1.13-1.68-.28-.65-.42-1.35-.42-2.06,0-.36.04-.71.11-1.06C.54,2.15,2.15.54,4.23.11c.35-.07.71-.11,1.07-.11.71,0,1.41.14,2.06.42.63.27,1.2.65,1.68,1.14.23.23.45.49.64.77.39.58.66,1.22.8,1.9.07.35.11.71.11,1.06,0,.54-.07,1.05-.21,1.53,0,0,1.78,2.64,2.34,3.47.89,1.33,1.84,2.77,2.87,4.33.28-.04.56-.06.84-.06h.1c.79.01,1.61.18,2.42.5.16.06.31.13.47.2.2-.01.41-.02.61-.02.35,0,.7.02,1.05.05.23.02.47.06.7.09.7-1.01,1.36-1.96,1.98-2.86,1.08-1.56,2.03-2.96,2.86-4.18-.12-.52-.12-1.08-.12-1.66,0-2.92,2.37-5.29,5.29-5.29s5.29,2.37,5.29,5.29c0,2.62-1.92,4.81-4.43,5.22l-1.18,1.73c-.66.96-1.38,2.02-2.17,3.17.69.37,1.34.83,1.95,1.36,1.24,1.09,2.27,2.48,3,4.03.72,1.55,1.09,3.17,1.07,4.69,0,.32-.03.64-.07.95-.08.61-.22,1.23-.42,1.83-.38,1.17-.99,2.32-1.78,3.39l1.46.95c.67-.46,1.55-.86,2.62-.86.72,0,1.41.14,2.06.42,1.96.83,3.23,2.75,3.23,4.87,0,2.77-2.52,5.29-5.29,5.29-1.21,0-2.4-.42-3.35-1.18-.32-.26-.61-.56-.88-.91-.14-.19-.27-.38-.38-.58-.08-.14-.16-.29-.22-.43-.77,1.83-2.32,4.85-4.17,4.85h-.56l-1.07.47s-.29.13-.72.29c-1.86.71-2.68.71-2.96.71-.53,0-.99-.12-1.39-.34-.29-.16-.64-.42-1.51-1.12l-.05.19c.44.9.59,1.96.4,3-.16,1.43-.93,2.68-2.19,3.51l-.12.08c-.43.25-.87.44-1.29.58-.53.17-1.07.26-1.59.26h-.76Z"/>
      <g>
        <path class="cls-1" d="M31.3,34.09c-.17-.43-.34-.85-.6-1.28,1.45-1.53,2.56-3.5,2.81-5.54.51-3.92-2.64-9.29-7.33-10.14,2.3-3.32,4.09-5.97,5.54-8.1h.26c1.88,0,3.41-1.53,3.41-3.41s-1.53-3.41-3.41-3.41-3.41,1.53-3.41,3.41.17,1.28.51,1.79c-1.62,2.39-3.84,5.63-6.56,9.55-1.19-.34-2.47-.51-3.75-.34-1.11-.6-2.3-.94-3.58-.68-.34,0-.6.09-.94.26-2.73-4.18-5.03-7.59-6.82-10.23.34-.51.51-1.11.51-1.79,0-1.88-1.53-3.41-3.41-3.41s-3.41,1.53-3.41,3.41,1.53,3.41,3.41,3.41h.26c1.71,2.56,4.01,5.88,6.82,9.97-2.3,1.62-4.09,4.26-4.43,6.99-.34,2.22.6,4.86,2.22,6.99.77,3.32,2.73,6.05,5.2,7.76l-.68,5.71c-1.36.26-2.39,1.36-2.64,2.73-.34,1.88.94,3.58,2.81,3.92h.6c.68,0,1.36-.26,1.96-.6.77-.51,1.28-1.28,1.36-2.22.17-.85,0-1.79-.6-2.47l1.11-4.18c1.79,1.45,3.41,2.81,3.75,2.98.68.43,3.41-.77,3.41-.77-.6-1.28-.85-2.81-.94-4.18.26-.17.51-.26.77-.43.77.68,1.62,1.88,2.64,3.92.17.34,2.56-2.81,3.24-6.22l2.81,1.88c.34,1.45,1.71,2.56,3.32,2.56s3.41-1.53,3.41-3.41-1.53-3.41-3.41-3.41h0c-1.01,0-1.84.67-2.52,1.42l-3.62-2.35-.09-.09ZM22.94,43.56s0,0,0,0c0,0,0,0,0,0,0,0,0,0,0,0Z"/>
        <path class="cls-3" d="M37.61,35.29c-1.02,0-1.96.51-2.64,1.28l1.02.68c.43-.43.94-.68,1.53-.68,1.19,0,2.13.94,2.13,2.13s-.94,2.13-2.13,2.13-1.02-.17-1.36-.51l.51-.77h0c-.17,0-.34,0-.51-.17l-4.6-3.07c0-.77,0-1.53-.26-2.22-.17-.43-.34-.85-.6-1.28,1.45-1.53,2.56-3.5,2.81-5.54.51-3.92-2.64-9.29-7.33-10.14,2.3-3.32,4.09-5.97,5.54-8.1h.26c1.88,0,3.41-1.53,3.41-3.41s-1.53-3.41-3.41-3.41-3.41,1.53-3.41,3.41.17,1.28.51,1.79c-1.62,2.39-3.84,5.63-6.56,9.55-1.19-.34-2.47-.51-3.75-.34-1.11-.6-2.3-.94-3.58-.68-.34,0-.6.09-.94.26-2.73-4.18-5.03-7.59-6.82-10.23.34-.51.51-1.11.51-1.79,0-1.88-1.53-3.41-3.41-3.41s-3.41,1.53-3.41,3.41,1.53,3.41,3.41,3.41.17,0,.26,0c1.71,2.56,4.01,5.88,6.82,9.97-2.3,1.62-4.09,4.26-4.43,6.99-.34,2.22.6,4.86,2.22,6.99.77,3.32,2.73,6.05,5.2,7.76l-.68,5.71c-1.36.26-2.39,1.36-2.64,2.73-.34,1.88.94,3.58,2.81,3.92h.6c.68,0,1.36-.26,1.96-.6.77-.51,1.28-1.28,1.36-2.22.17-.85,0-1.79-.6-2.47h0l1.11-4.18c1.79,1.45,3.41,2.81,3.75,2.98.68.43,3.41-.77,3.41-.77-.6-1.28-.85-2.81-.94-4.18.26-.17.51-.26.77-.43.77.68,1.62,1.88,2.64,3.92.17.34,2.56-2.81,3.24-6.22l2.81,1.88c.34,1.45,1.71,2.56,3.32,2.56s3.41-1.53,3.41-3.41-1.53-3.41-3.41-3.41l.09.17ZM32.07,27.02c-.09.85-.43,1.62-.77,2.39,0-.77,0-1.53-.17-2.3-.6-3.41-2.3-6.31-4.69-8.18,3.67.77,6.14,5.03,5.71,8.1h-.09ZM30.28,6.64h-.17c-.09-.34-.17-.68-.17-.94,0-1.19.94-2.13,2.13-2.13s2.13.94,2.13,2.13-.68,1.88-1.62,2.05l-.77-.51c-1.53,2.3-3.84,5.63-6.73,9.8-.51,0-1.02.09-1.45.26-.17,0-.34-.09-.43-.17,3.07-4.52,5.54-8.01,7.16-10.57l-.09.09ZM4.53,6.3c-1.19,0-2.13-.94-2.13-2.13s.94-2.13,2.13-2.13,2.13.94,2.13,2.13-.94,2.13-2.13,2.13ZM5.72,7.32c.51-.17.94-.51,1.28-.85,1.79,2.64,4.01,5.88,6.73,9.89-.51.17-.94.43-1.36.68-2.64-3.92-4.86-7.16-6.65-9.72ZM9.47,24.37c.51-3.5,3.41-6.73,6.65-7.33,3.15-.51,6.14,2.9,6.65,7.59.51,4.77-2.39,9.55-6.65,8.78s-7.08-5.54-6.65-9.04ZM16.72,48.76c-.17,1.19-1.28,1.96-2.47,1.71-1.19-.17-1.96-1.28-1.71-2.47.17-1.19,1.28-1.96,2.47-1.71,1.19.17,1.96,1.28,1.71,2.47ZM24.91,34.09c-.68,0-1.62.34-1.96,1.62h-.09v2.05c.09,2.05.26,4.35.68,5.63-.26,0-.43.09-.6.17-.51-.43-2.22-1.62-3.92-3.07l.6-2.13v-1.02l-.17-.26-.68-.6h0c0,.17.09.26,0,.43v.17l-2.3,8.35c-.43-.26-.85-.43-1.36-.51h-.26l2.3-8.27s0-.17.09-.17l-2.22.77c-.17-.17-.34-.26-.43-.43-1.02-.77-1.88-1.71-2.47-2.73.94.6,2.05,1.02,3.15,1.19,5.2.85,8.78-4.86,8.18-10.4-.26-2.39-1.11-4.52-2.22-6.05,5.03.43,8.95,4.69,8.95,9.97s-.17,2.22-.51,3.24c-.34.26-.68.51-1.02.68l-2.05.85c-.51.26-1.11.43-1.71.43v.09ZM29,41.85c-.6-2.9-2.05-5.8-1.88-6.56l2.13-1.62c1.28,2.64,1.88,6.14-.26,8.27v-.09Z"/>
        <path class="cls-5" d="M37.44,39.12c-.17.26-.43.34-.68.34l-.51.77c.34.34.85.51,1.36.51,1.19,0,2.13-.94,2.13-2.13s-.94-2.13-2.13-2.13-1.19.26-1.53.68l1.11.77c.43.26.51.77.26,1.19Z"/>
        <path class="cls-6" d="M31.64,36.31l4.6,3.07c.17.09.34.17.51.17s0,0,0,0c.26,0,.51-.17.68-.34.26-.43.17-.94-.26-1.19l-1.11-.77-1.02-.68-3.67-2.39c.17.68.26,1.45.26,2.22v-.09Z"/>
        <path class="cls-5" d="M31.55,6.13c.34.26.43.68.17,1.02h0l.77.51c.94-.26,1.62-1.02,1.62-2.05s-.94-2.13-2.13-2.13-2.13.94-2.13,2.13,0,.6.17.85h.17s.17-.09.26-.17c.26-.34.68-.43,1.02-.17h.09Z"/>
        <path class="cls-6" d="M25.08,17.04c2.9-4.18,5.12-7.5,6.73-9.8h0c.26-.34.17-.85-.17-1.02-.34-.26-.85-.17-1.02.17,0,.09-.17.26-.26.34-1.62,2.47-4.09,6.05-7.16,10.57.17,0,.34.09.43.17.51-.17.94-.26,1.45-.26v-.17Z"/>
        <path class="cls-6" d="M13.74,16.36c-2.73-4.01-4.94-7.25-6.73-9.89-.34.34-.77.68-1.28.85,1.79,2.56,4.01,5.8,6.65,9.72.43-.26.94-.51,1.36-.68Z"/>
        <circle class="cls-5" cx="4.53" cy="4.17" r="2.13"/>
        <path class="cls-2" d="M31.04,27.1c.09.77.17,1.53.17,2.3.43-.77.68-1.62.77-2.39.43-3.07-2.05-7.25-5.71-8.1,2.39,1.88,4.18,4.77,4.69,8.18h.09Z"/>
        <path class="cls-4" d="M29.68,32.05c.34-1.02.51-2.13.51-3.24,0-5.29-3.92-9.55-8.95-9.97,1.19,1.62,1.96,3.67,2.22,6.05.6,5.63-2.98,11.25-8.18,10.4-1.11-.17-2.22-.6-3.15-1.19.68,1.11,1.53,2.05,2.47,2.73.17.09.26.26.43.43l2.22-.77c.17-.34.6-.51.94-.43.26,0,.43.26.51.43h0l.68.6v.26c.09,0,.17,1.02.17,1.02l-.6,2.13c1.71,1.36,3.41,2.64,3.92,3.07.17,0,.34,0,.6-.17-.34-1.28-.6-3.58-.68-5.63-.09-.68-.17-1.28,0-1.71v-.34h.09c.34-1.28,1.36-1.53,1.96-1.62.6,0,1.11-.26,1.71-.43l2.05-.85c.34-.17.68-.43,1.02-.68l.09-.09ZM26.18,23.1c.34,0,.51.26.51.51s-.26.51-.51.51-.51-.26-.51-.51.26-.51.51-.51ZM26.87,25.48c.68,0,1.28.26,1.28.68s-.6.68-1.28.68-1.28-.26-1.28-.68.6-.68,1.28-.68ZM24.99,21.99c-.17,0-.26-.09-.26-.26s.09-.26.26-.26.26.09.26.26-.09.26-.26.26ZM26.87,32.3c-.34,0-.51-.26-.51-.51s.26-.51.51-.51.51.26.51.51-.26.51-.51.51ZM25.5,28.98c0-.6.85-1.02,1.96-1.02s1.96.43,1.96,1.02-.85,1.02-1.96,1.02-1.96-.43-1.96-1.02Z"/>
        <path class="cls-4" d="M27.12,35.2c-.17.77,1.28,3.67,1.88,6.56,2.13-2.13,1.53-5.54.26-8.27l-2.13,1.62v.09Z"/>
        <path class="cls-2" d="M22.77,24.72c-.51-4.77-3.41-8.18-6.65-7.59-3.15.51-6.14,3.84-6.65,7.33-.51,3.5,2.39,8.35,6.65,9.12s7.08-4.09,6.65-8.78v-.09ZM14.85,29.06l1.28-2.13-1.62-2.73h-1.02c.09-.34.26-.68.43-1.02h1.19l.94-1.71c.17,0,.43-.09.6-.09.6,0,1.19.17,1.71.6l-1.02,1.88,1.62,2.73h1.11c0,.43-.17.85-.34,1.28h-2.56l-1.11,1.96c-.43-.17-.85-.34-1.19-.68v-.09Z"/>
        <path class="cls-6" d="M18.26,36.14c-.34-.09-.77,0-.94.43,0,0,0,.09-.09.17l-2.3,8.27h.26c.51,0,.94.26,1.36.51l2.3-8.35v-.6c-.09-.26-.26-.43-.51-.43h-.09Z"/>
        <path class="cls-5" d="M15.02,46.28c-1.19-.17-2.3.6-2.47,1.71-.17,1.19.6,2.3,1.71,2.47,1.19.17,2.3-.6,2.47-1.71.17-1.19-.6-2.3-1.71-2.47Z"/>
        <circle class="cls-2" cx="26.18" cy="23.61" r=".51"/>
        <circle class="cls-2" cx="24.99" cy="21.73" r=".26"/>
        <path class="cls-2" d="M26.87,31.19c-.34,0-.51.26-.51.51s.26.51.51.51.51-.26.51-.51-.26-.51-.51-.51Z"/>
        <path class="cls-2" d="M26.87,26.85c.68,0,1.28-.26,1.28-.68s-.6-.68-1.28-.68-1.28.26-1.28.68.6.68,1.28.68Z"/>
        <path class="cls-2" d="M29.51,28.98c0-.6-.85-1.02-1.96-1.02s-1.96.43-1.96,1.02.85,1.02,1.96,1.02,1.96-.43,1.96-1.02Z"/>
        <path class="cls-1" d="M19.71,27.78c.17-.43.34-.85.34-1.28h-1.11l-1.62-2.73,1.02-1.88c-.51-.34-1.11-.6-1.71-.6-.17,0-.43,0-.6.09l-.94,1.71h-1.19c-.17.34-.34.68-.43,1.02h1.02l1.62,2.73-1.28,2.13c.34.26.77.51,1.19.68l1.11-1.96h2.56v.09Z"/>
      </g>
    </g>
  </g>
</svg>