<?xml version="1.0" encoding="UTF-8"?>
<svg id="Layer_2" overflow="visible" data-name="Layer 2" xmlns="http://www.w3.org/2000/svg" viewBox="0 0 28.8 28.94">
  <defs>
    <style>
      .cls-1 {
        opacity: .8;
      }

      .cls-1, .cls-2 {
        fill: #b0d237;
      }

      .cls-3 {
        fill: #231f20;
      }

      .cls-4 {
        fill: #f6891f;
      }

      .cls-4, .cls-5, .cls-6 {
        isolation: isolate;
      }

      .cls-5 {
        fill: #009bdf;
      }

      .cls-7 {
        fill: #081c29;
      }

      .cls-8 {
        fill: #febd30;
      }

      .cls-9 {
        fill: #81b9e5;
      }

      .cls-6 {
        fill: #71c493;
        opacity: .6;
      }
    </style>
  </defs>
  <g id="Layer_1-2" data-name="Layer 1">
    <g>
      <g>
        <rect class="cls-3" x="6.58" y="2.02" width="15.42" height="8.2" rx="2.22" ry="2.22"/>
        <path class="cls-3" d="M11.4,13.12c-1.25,0-2.33-.77-2.78-1.86-.21-.1-.4-.22-.59-.35l-3.46,1.2c-.61.21-1.27.17-1.85-.11h0c-.58-.28-1.02-.78-1.23-1.39h0c-.21-.61-.17-1.27.11-1.85h0c.28-.58.78-1.02,1.38-1.23l2.93-1.02c0-.13-.01-.26-.01-.39s0-.26.01-.39l-2.93-1.02c-.61-.21-1.1-.65-1.38-1.23h0c-.28-.58-.32-1.25-.11-1.85h0c.21-.61.65-1.11,1.23-1.39h0c.58-.28,1.25-.32,1.85-.11l2.44.85c.6.21,1.24.14,1.83-.1.43-.17.88-.26,1.35-.26h8.4c.47,0,.92.09,1.35.26.59.24,1.23.31,1.83.1l2.44-.85c.61-.21,1.27-.17,1.85.11h0c.58.28,1.02.78,1.23,1.39h0c.21.61.17,1.27-.11,1.85h0c-.28.58-.78,1.02-1.38,1.24l-2.93,1.02c0,.13.01.26.01.39s0,.26-.01.39l2.93,1.02c.61.21,1.1.65,1.38,1.23h0c.28.58.32,1.25.11,1.86h0c-.21.61-.65,1.1-1.23,1.38h0c-.58.28-1.25.32-1.85.11l-3.45-1.2c-.19.14-.39.25-.59.35-.45,1.09-1.52,1.86-2.78,1.86h-6Z"/>
        <g>
          <path class="cls-3" d="M20.6,7.93c.18-.5.3-1.08.3-1.71s-.11-1.2-.3-1.71l4.72-1.64.15-.32-.12-.33-.32-.15-4.81,1.67c-.41-.63-.99-1.02-1.64-1.02h-8.4c-.65,0-1.22.39-1.64,1.02l-4.81-1.67-.32.15-.11.33.15.32,4.72,1.64c-.18.5-.3,1.08-.3,1.71s.11,1.2.3,1.71l-4.72,1.64-.15.32.11.33.32.15,4.81-1.67c.41.63.99,1.02,1.64,1.02h.35c-.09.15-.15.31-.15.5,0,.55.45,1,1,1h6c.55,0,1-.45,1-1,0-.19-.06-.35-.15-.5h.35c.65,0,1.22-.39,1.64-1.02l4.81,1.67.32-.15.12-.33-.15-.32-4.72-1.64Z"/>
          <path class="cls-5" d="M4.4,10.42c-1.32,0-4.4-.12-4.4-1.2s3.37-1.2,4.4-1.2,4.4.09,4.4,1.2-3.08,1.2-4.4,1.2ZM1,9.22c.48.18,1.63.4,3.4.4s2.92-.22,3.4-.4c-.49-.18-1.66-.4-3.4-.4s-2.92.22-3.4.4Z"/>
          <path class="cls-5" d="M4.4,3.62c-1.03,0-4.4-.09-4.4-1.2s3.37-1.2,4.4-1.2,4.4.09,4.4,1.2-3.37,1.2-4.4,1.2ZM1,2.42c.48.18,1.63.4,3.4.4s2.92-.22,3.4-.4c-.49-.18-1.66-.4-3.4-.4s-2.92.22-3.4.4Z"/>
          <path class="cls-5" d="M24.4,10.42c-1.03,0-4.4-.09-4.4-1.2s3.37-1.2,4.4-1.2,4.4.09,4.4,1.2-3.37,1.2-4.4,1.2ZM21,9.22c.49.18,1.66.4,3.4.4s2.91-.22,3.4-.4c-.49-.18-1.66-.4-3.4-.4s-2.91.22-3.4.4Z"/>
          <path class="cls-5" d="M24.4,3.62c-1.03,0-4.4-.09-4.4-1.2s3.37-1.2,4.4-1.2,4.4.09,4.4,1.2-3.37,1.2-4.4,1.2ZM21,2.42c.49.18,1.66.4,3.4.4s2.91-.22,3.4-.4c-.49-.18-1.66-.4-3.4-.4s-2.91.22-3.4.4Z"/>
          <g>
            <path class="cls-8" d="M20.6,7.93c-.1.28-.22.55-.37.77l4.81,1.67.32-.15.12-.33-.15-.32-4.72-1.64Z"/>
            <path class="cls-8" d="M8.56,3.74l-4.81-1.67-.32.15-.11.33.15.32,4.72,1.64c.1-.28.22-.55.37-.77Z"/>
            <path class="cls-8" d="M8.2,7.93l-4.72,1.64-.15.32.11.33.32.15,4.81-1.67c-.15-.23-.27-.49-.37-.77Z"/>
            <path class="cls-8" d="M20.6,4.51l4.72-1.64.15-.32-.12-.33-.32-.15-4.81,1.67c.15.23.27.49.37.77Z"/>
            <path class="cls-4" d="M19.9,6.22c0-1.47-.68-2.5-1.3-2.5h-8.4c-.61,0-1.3,1.03-1.3,2.5s.69,2.5,1.3,2.5h8.4c.62,0,1.3-1.03,1.3-2.5ZM14.4,8.02c-.99,0-1.8-.81-1.8-1.8s.81-1.8,1.8-1.8,1.8.81,1.8,1.8-.81,1.8-1.8,1.8Z"/>
            <path class="cls-8" d="M20.6,7.93c.18-.5.3-1.08.3-1.71s-.11-1.2-.3-1.71c-.1-.28-.22-.55-.37-.77-.41-.63-.99-1.02-1.64-1.02h-8.4c-.65,0-1.22.39-1.64,1.02-.15.23-.27.49-.37.77-.18.5-.3,1.08-.3,1.71s.11,1.2.3,1.71c.1.28.22.55.37.77.41.63.99,1.02,1.64,1.02h.35c.17-.29.48-.5.85-.5h6c.37,0,.67.21.85.5h.35c.65,0,1.22-.39,1.64-1.02.15-.23.27-.49.37-.77ZM10.2,8.72c-.61,0-1.3-1.03-1.3-2.5s.69-2.5,1.3-2.5h8.4c.62,0,1.3,1.03,1.3,2.5s-.68,2.5-1.3,2.5h-8.4Z"/>
            <circle class="cls-7" cx="14.4" cy="6.22" r="1.8"/>
            <circle class="cls-9" cx="14.4" cy="6.22" r="1.8"/>
            <path class="cls-2" d="M17.4,9.22h-6c-.37,0-.67.21-.85.5-.09.15-.15.31-.15.5,0,.55.45,1,1,1h6c.55,0,1-.45,1-1,0-.19-.06-.35-.15-.5-.17-.29-.48-.5-.85-.5Z"/>
          </g>
          <circle class="cls-6" cx="8.4" cy="11.22" r="1"/>
          <circle class="cls-6" cx="14.4" cy="11.22" r="1"/>
          <circle class="cls-6" cx="20.4" cy="11.22" r="1"/>
        </g>
      </g>
      <ellipse class="cls-1" cx="14.4" cy="22.36" rx="13.4" ry="6.58"/>
    </g>
  </g>
</svg>