<?xml version="1.0" encoding="UTF-8"?>
<svg id="Layer_2" overflow="visible" data-name="Layer 2" xmlns="http://www.w3.org/2000/svg" viewBox="0 0 24 32">
  <defs>
    <style>
      .cls-1 {
        opacity: .7;
      }

      .cls-1, .cls-2 {
        fill: #b0d237;
      }

      .cls-3 {
        fill: #010101;
      }

      .cls-4 {
        fill: #231f20;
      }

      .cls-5 {
        fill: #8fc740;
      }

      .cls-6 {
        fill: #7a5220;
      }
    </style>
  </defs>
  <g id="Layer_1-2" data-name="Layer 1">
    <g>
      <path class="cls-4" d="M11,32c-1.65,0-3-1.35-3-3v-7.1C3.26,20.45,0,16.52,0,12c0-2.74,1.18-5.3,3.33-7.26C4.84,1.84,8.19,0,12,0s7.16,1.84,8.67,4.74c2.15,1.96,3.33,4.52,3.33,7.26,0,4.52-3.26,8.45-8,9.9v7.1c0,1.65-1.35,3-3,3h-2Z"/>
      <rect class="cls-6" x="10" y="20.03" width="4" height="10" rx="1" ry="1"/>
      <ellipse class="cls-1" cx="12" cy="12.03" rx="10" ry="8.5"/>
      <ellipse class="cls-5" cx="10.41" cy="12.03" rx="7.5" ry="6"/>
      <ellipse class="cls-2" cx="12" cy="8.03" rx="7.5" ry="6"/>
      <circle class="cls-3" cx="8" cy="9.03" r="2"/>
      <circle class="cls-3" cx="15" cy="12.03" r="1.6"/>
    </g>
  </g>
</svg>