<?xml version="1.0" encoding="UTF-8"?>
<svg id="Layer_2" overflow="visible" data-name="Layer 2" xmlns="http://www.w3.org/2000/svg" viewBox="0 0 42.5 29.54">
  <defs>
    <style>
      .cls-1 {
        fill: #2c451e;
        opacity: .9;
      }

      .cls-1, .cls-2, .cls-3 {
        isolation: isolate;
      }

      .cls-4 {
        opacity: .7;
      }

      .cls-4, .cls-5 {
        fill: #b0d237;
      }

      .cls-6 {
        fill: #706f8b;
      }

      .cls-7 {
        fill: #696865;
      }

      .cls-8, .cls-3 {
        fill: #231f20;
      }

      .cls-2 {
        fill: #6bc9ca;
        opacity: .5;
      }

      .cls-9 {
        fill: #e89e2b;
      }

      .cls-10 {
        fill: #606078;
      }

      .cls-11 {
        fill: #fbaa32;
      }

      .cls-12 {
        fill: #edef9f;
      }

      .cls-13 {
        fill: #242424;
      }

      .cls-14 {
        fill: #787673;
      }

      .cls-15 {
        fill: #cc8d2a;
      }

      .cls-16 {
        fill: #29abe2;
      }

      .cls-17 {
        fill: #0c0c0c;
      }

      .cls-18 {
        fill: #131313;
      }

      .cls-19 {
        fill: #febd30;
      }

      .cls-20 {
        fill: #81b9e5;
      }

      .cls-21 {
        fill: #333;
      }

      .cls-22 {
        fill: #e0e323;
      }
    </style>
  </defs>
  <g id="Layer_1-2" data-name="Layer 1">
    <g>
      <g>
        <path class="cls-8" d="M8,29.54c-4.41,0-8-3.59-8-8,0-.21.02-.41.04-.61-.03-.28-.04-.54-.04-.79,0-2.49,1.17-4.81,3.09-6.3-.06-.34-.1-.69-.1-1.04,0-.16.01-.31.03-.47-.02-.17-.03-.31-.03-.45,0-3.27,2.66-5.93,5.93-5.93,3.06,0,5.58,2.29,5.88,5.34.06.41.09.89.09,1.51,0,.89-.2,1.75-.57,2.54.96,1.27,1.52,2.81,1.59,4.43.05.49.08,1.07.08,1.77,0,4.41-3.59,8-8,8Z"/>
        <path class="cls-8" d="M11.78,15.55c.69-.71,1.12-1.68,1.12-2.74,0-.56-.03-.96-.08-1.26-.17-2.01-1.84-3.59-3.89-3.59-2.17,0-3.93,1.76-3.93,3.93,0,.15.03.3.05.45-.02.15-.05.31-.05.47,0,.69.2,1.34.51,1.9-2.07.94-3.51,3.02-3.51,5.43,0,.27.02.53.06.79-.02.2-.06.4-.06.6,0,3.3,2.7,6,6,6s6-2.7,6-6c0-.68-.03-1.2-.08-1.61-.06-1.76-.88-3.32-2.15-4.38Z"/>
        <path class="cls-8" d="M34.5,29.54c-4.41,0-8-3.59-8-8,0-.21.02-.41.04-.61-.03-.28-.04-.54-.04-.79,0-1.88.65-3.65,1.82-5.06-.3-.72-.47-1.49-.47-2.28,0-.16.01-.31.03-.47-.02-.17-.03-.31-.03-.45,0-3.27,2.66-5.93,5.93-5.93,3.06,0,5.58,2.29,5.88,5.34.06.41.09.89.09,1.51,0,.42-.05.85-.14,1.26,1.67,1.41,2.71,3.47,2.81,5.71.05.49.08,1.07.08,1.77,0,4.41-3.59,8-8,8Z"/>
        <path class="cls-8" d="M40.42,19.93c-.08-2.23-1.38-4.14-3.25-5.1.36-.59.58-1.28.58-2.02,0-.56-.03-.96-.08-1.26-.17-2.01-1.84-3.59-3.89-3.59-2.17,0-3.93,1.76-3.93,3.93,0,.15.03.3.05.45-.02.15-.05.31-.05.47,0,1,.39,1.9,1,2.6-1.43,1.09-2.35,2.81-2.35,4.74,0,.27.02.53.06.79-.02.2-.06.4-.06.6,0,3.3,2.7,6,6,6s6-2.7,6-6c0-.68-.03-1.2-.08-1.61Z"/>
      </g>
      <path class="cls-3" d="M10.03,26.4c-3.44,0-6.1-3.3-6.1-6.14,0-1.88.86-3.63,2.24-4.77-.56-.52-.91-1.27-.91-2.14v-.96c0-1.64,1.23-2.88,2.86-2.88h.86v-.48c0-.75.38-1.42.95-1.82v-1.06c0-.54.17-1.07.48-1.52v-.68c0-1.64,1.23-2.88,2.86-2.88.91,0,1.69.38,2.2,1,.33-1.22,1.41-2.06,2.75-2.06h6.67c1.23,0,2.24.71,2.65,1.77.5-.45,1.17-.71,1.92-.71,1.63,0,2.86,1.24,2.86,2.88v.61c.3.45.48,1,.48,1.6v1.06c.58.4.95,1.07.95,1.82v.38h.86c1.63,0,2.86,1.24,2.86,2.88v.96c0,.86-.33,1.6-.88,2.12,1.18.88,2.22,2.31,2.22,4.79,0,3.39-2.74,6.14-6.1,6.14-3.01,0-5.51-2.2-6.01-5.09h-.95v-2.11h-8.96v2.11h-.74c-.46,2.93-2.99,5.18-6.02,5.18Z"/>
      <g>
        <g>
          <circle class="cls-6" cx="8.93" cy="12.13" r="3.93"/>
          <path class="cls-8" d="M8.95,9.1c-1.18,0-2.24.53-2.96,1.32-.59.72-.99,1.65-.99,2.63,0,2.17,1.78,3.95,3.95,3.95s3.95-1.78,3.95-3.95-.4-1.91-.99-2.63c-.72-.79-1.78-1.32-2.96-1.32ZM8.95,16.74c-2.04,0-3.69-1.65-3.69-3.69s1.65-3.69,3.69-3.69,3.69,1.65,3.69,3.69-1.65,3.69-3.69,3.69Z"/>
          <path class="cls-8" d="M8.95,14.37c-.66,0-1.18-.53-1.25-1.18v.13c0,.72.59,1.32,1.32,1.32s1.32-.59,1.32-1.32,0-.07,0-.13c-.07.66-.59,1.18-1.25,1.18h-.13Z"/>
          <path class="cls-6" d="M8.95,10.42c-1.58,0-2.83,1.25-2.9,2.77.07,1.51,1.32,2.77,2.9,2.77s2.83-1.25,2.9-2.77c-.07-1.51-1.32-2.77-2.9-2.77ZM10.2,13.32c0,.72-.59,1.32-1.32,1.32s-1.32-.59-1.32-1.32,0-.07,0-.13v-.13c0-.72.59-1.32,1.32-1.32s1.32.59,1.32,1.32,0,.07,0,.13v.13Z"/>
          <path class="cls-10" d="M8.95,9.37c-2.04,0-3.69,1.65-3.69,3.69s1.65,3.69,3.69,3.69,3.69-1.65,3.69-3.69-1.65-3.69-3.69-3.69ZM11.85,13.18c-.07,1.51-1.32,2.77-2.9,2.77s-2.83-1.25-2.9-2.77v-.13c0-1.58,1.32-2.9,2.9-2.9s2.9,1.32,2.9,2.9,0,.07,0,.13Z"/>
          <path class="cls-18" d="M8.95,11.74c-.72,0-1.32.59-1.32,1.32s0,.07,0,.13c.07.66.59,1.18,1.25,1.18s1.18-.53,1.25-1.18v-.13c0-.72-.59-1.32-1.32-1.32h.13ZM8.95,13.97c-.53,0-.92-.39-.92-.92s.4-.92.92-.92.92.4.92.92-.4.92-.92.92Z"/>
          <path class="cls-18" d="M8.95,12.92s-.13,0-.13.13.2.13.2,0,0-.13-.13-.13h.07Z"/>
          <path class="cls-11" d="M8.95,12.13c-.53,0-.92.4-.92.92s.4.92.92.92.92-.39.92-.92-.4-.92-.92-.92ZM8.82,13.05s0-.13.13-.13.13,0,.13.13-.2.13-.2,0h-.07Z"/>
        </g>
        <g>
          <circle class="cls-6" cx="33.78" cy="12.13" r="3.93"/>
          <path class="cls-8" d="M33.8,9.1c-1.18,0-2.24.53-2.96,1.32-.59.72-.99,1.65-.99,2.63,0,2.17,1.78,3.95,3.95,3.95s3.95-1.78,3.95-3.95-.4-1.91-.99-2.63c-.72-.79-1.78-1.32-2.96-1.32ZM33.8,16.74c-2.04,0-3.69-1.65-3.69-3.69s1.65-3.69,3.69-3.69,3.69,1.65,3.69,3.69-1.65,3.69-3.69,3.69Z"/>
          <path class="cls-8" d="M33.8,14.37c-.66,0-1.18-.53-1.25-1.18v.13c0,.72.59,1.32,1.32,1.32s1.32-.59,1.32-1.32,0-.07,0-.13c-.07.66-.59,1.18-1.25,1.18h-.13Z"/>
          <path class="cls-6" d="M33.8,10.42c-1.58,0-2.83,1.25-2.9,2.77.07,1.51,1.32,2.77,2.9,2.77s2.83-1.25,2.9-2.77c-.07-1.51-1.32-2.77-2.9-2.77ZM35.05,13.32c0,.72-.59,1.32-1.32,1.32s-1.32-.59-1.32-1.32,0-.07,0-.13v-.13c0-.72.59-1.32,1.32-1.32s1.32.59,1.32,1.32,0,.07,0,.13v.13Z"/>
          <path class="cls-10" d="M33.8,9.37c-2.04,0-3.69,1.65-3.69,3.69s1.65,3.69,3.69,3.69,3.69-1.65,3.69-3.69-1.65-3.69-3.69-3.69ZM36.7,13.18c-.07,1.51-1.32,2.77-2.9,2.77s-2.83-1.25-2.9-2.77v-.13c0-1.58,1.32-2.9,2.9-2.9s2.9,1.32,2.9,2.9,0,.07,0,.13Z"/>
          <path class="cls-18" d="M33.8,11.74c-.72,0-1.32.59-1.32,1.32s0,.07,0,.13c.07.66.59,1.18,1.25,1.18s1.18-.53,1.25-1.18v-.13c0-.72-.59-1.32-1.32-1.32h.13ZM33.8,13.97c-.53,0-.92-.39-.92-.92s.4-.92.92-.92.92.4.92.92-.4.92-.92.92Z"/>
          <path class="cls-18" d="M33.8,12.92s-.13,0-.13.13.2.13.2,0,0-.13-.13-.13h.07Z"/>
          <path class="cls-11" d="M33.8,12.13c-.53,0-.92.4-.92.92s.4.92.92.92.92-.39.92-.92-.4-.92-.92-.92ZM33.67,13.05s0-.13.13-.13.13,0,.13.13-.2.13-.2,0h-.07Z"/>
        </g>
      </g>
      <ellipse class="cls-4" cx="21.4" cy="23.44" rx="11.8" ry="4.49"/>
      <g>
        <g>
          <path class="cls-3" d="M34.85,13.99h.4c.6,0,1-.4,1-1v-1c0-.6-.4-1-1-1h-2.9v-2.4c0-.1-.1-.3-.3-.3h-.7v-2.7c0-.4-.2-.7-.5-.8v-1.5c0-.6-.4-1-1-1s-1,.4-1,1v1.5c-.3.2-.5.5-.5.8v2.7h-2.3V2.19c0-.6-.4-1-1-1h-7c-.6,0-1,.4-1,1v6.1h-2.7v-2.7c0-.4-.2-.7-.5-.8v-1.5c0-.6-.4-1-1-1s-1,.4-1,1v1.5c-.3.2-.5.5-.5.8v2.7h-.7c-.1,0-.3.1-.3.3v2.5h-2.9c-.6,0-1,.4-1,1v1c0,.6.4,1,1,1h.4v2.1c-1.6.6-2.8,2.2-2.8,4.1s2,4.4,4.4,4.4,4.4-2,4.4-4.4c0-.49,0-.8,0-1h.7v-2.2h13.4v2.2h.99c-.02.29-.09.63-.09.9,0,2.4,2,4.4,4.4,4.4s4.4-2,4.4-4.4-1.2-3.4-2.8-4.1v-2.1ZM13.75,19.29h.05s-.03.06-.05,0Z"/>
          <g>
            <path class="cls-12" d="M14.65,19.29v5c0,.2.2.4.4.4h.6c.2,0,.4-.2.4-.4v-7.3h-1.4v2.3Z"/>
            <path class="cls-12" d="M26.55,16.99v7.3c0,.2.2.4.4.4h.6c.2,0,.4-.2.4-.4v-7.3h-1.4Z"/>
            <path class="cls-12" d="M21.45,24.29c0,.2.2.4.4.4h.6c.2,0,.4-.2.4-.4v-7.3h-1.4v7.3Z"/>
            <path class="cls-12" d="M19.65,24.29c0,.2.2.4.4.4h.6c.2,0,.4-.2.4-.4v-7.3h-1.4v7.3Z"/>
            <path class="cls-12" d="M16.85,24.29c0,.2.2.4.4.4h.6c.2,0,.4-.2.4-.4v-7.3h-1.4v7.3Z"/>
            <path class="cls-12" d="M24.35,24.29c0,.2.2.4.4.4h.6c.2,0,.4-.2.4-.4v-7.3h-1.4v7.3Z"/>
          </g>
        </g>
        <path class="cls-19" d="M26.7,9.29v1.8h5.7v-2.5c0-.1-.1-.3-.3-.3h-.7v1.3c0,.6-.4,1-1,1h-1c-.6,0-1-.4-1-1v-1.3h-2.5c.4.2.8.5.8,1Z"/>
        <path class="cls-19" d="M13.3,11.09h2.8v-1.8c0-.5.3-.8.8-1h-2.5v1.3c0,.6-.4,1-1,1h-1c-.6,0-1-.4-1-1v-1.3h-.7c-.1,0-.3.1-.3.3v2.5h2.9Z"/>
        <path class="cls-15" d="M29.9,17.49v-5c0-.1,0-.2.2-.2v-1c0-.1.1-.2.2-.2h-.9v2.5h0v2.2h-3.7c-.1.4-.5.7-.9.7h-7c-.4,0-.8-.3-.9-.7h-3.7v-2.1h0v-2.6h-.8s.2,0,.2.2v1.1c.1,0,.2.1.2.2v5c.4.5.7,1.1.9,1.7h.9v-2.2h13.4v2.2h1c.2-.6.5-1.2.9-1.7v-.1Z"/>
        <rect class="cls-15" x="16.1" y="13.29" width=".8" height=".3"/>
        <rect class="cls-15" x="25.9" y="13.29" width=".8" height=".3"/>
        <path class="cls-6" d="M10.6,19.29c.2.3.4.6.4,1,0,.8-.7,1.5-1.5,1.5s-1.5-.7-1.5-1.5.2-.8.5-1.1c-.3-.2-.6-.5-.6-.9v-.8c-1,.6-1.6,1.6-1.6,2.8,0,1.8,1.4,3.2,3.2,3.2s3.2-1.4,3.2-3.2,0-.7-.2-1h-1.9Z"/>
        <path class="cls-21" d="M12.9,17.49v1.5c0,.1-.1.3-.3.3h-.1c.1.3.2.6.2,1,0,1.8-1.4,3.2-3.2,3.2s-3.2-1.4-3.2-3.2.6-2.2,1.6-2.8v-1.3c-1.6.6-2.8,2.2-2.8,4.1s2,4.4,4.4,4.4,4.4-2,4.4-4.4,0-.7-.1-1h0c-.2-.6-.5-1.2-.9-1.7v-.1Z"/>
        <path class="cls-13" d="M8,20.29c0,.8.7,1.5,1.5,1.5s1.5-.7,1.5-1.5-.1-.7-.4-1h-2.1c-.3.3-.5.7-.5,1.1v-.1Z"/>
        <path class="cls-6" d="M34.6,19.29h-.2c.2.3.4.6.4,1,0,.8-.7,1.5-1.5,1.5s-1.5-.7-1.5-1.5.1-.7.4-1h-1.9c-.1.3-.2.6-.2,1,0,1.8,1.4,3.2,3.2,3.2s3.2-1.4,3.2-3.2-.6-2.2-1.6-2.8v1.5c0,.1-.1.3-.3.3Z"/>
        <path class="cls-21" d="M34.9,16.19v1.3c1,.6,1.6,1.6,1.6,2.8,0,1.8-1.4,3.2-3.2,3.2s-3.2-1.4-3.2-3.2,0-.7.2-1h-.4v-1.8c-.4.5-.7,1.1-.9,1.7h0c0,.3-.1.7-.1,1,0,2.4,2,4.4,4.4,4.4s4.4-2,4.4-4.4-1.2-3.4-2.8-4.1v.1Z"/>
        <path class="cls-13" d="M33.3,21.79c.8,0,1.5-.7,1.5-1.5s-.1-.7-.4-1h-2.2c-.2.3-.4.6-.4,1,0,.8.7,1.5,1.5,1.5Z"/>
        <rect class="cls-11" x="13.3" y="11.09" width="2.8" height=".4"/>
        <rect class="cls-11" x="26.7" y="11.09" width="2.8" height=".4"/>
        <polygon class="cls-19" points="16.1 13.29 16.1 12.59 16.1 11.49 13.3 11.49 13.3 13.29 13.3 13.59 16.1 13.59 16.1 13.29"/>
        <polygon class="cls-19" points="26.7 12.59 26.7 13.29 26.7 13.59 29.5 13.59 29.5 13.29 29.5 11.49 26.7 11.49 26.7 12.59"/>
        <path class="cls-9" d="M25.9,14.39c0,.6-.4,1-1,1h-7c-.6,0-1-.4-1-1v1.4c.1.4.5.7.9.7h7c.4,0,.8-.3.9-.7v-1.4h.2Z"/>
        <path class="cls-9" d="M26.7,11.09v-1.8c0-.5-.3-.8-.8-1v4.2h.8v-1.5.1Z"/>
        <path class="cls-9" d="M16.1,12.59h.8v-4.2c-.4.1-.8.5-.8,1v3.3-.1Z"/>
        <path class="cls-11" d="M16.9,12.59h-.8v.7h.8v.3h-3.6v2.2h3.7v-1.4c0,.6.4,1,1,1h7c.6,0,1-.4,1-1v1.4h3.7v-2.1h0c0-.1-2.8-.1-2.8-.1h-.8v-.3h.8v-.7h-.8v-4.2h0V2.19c0-.6-.4-1-1-1h-.6c.6,0,1,.4,1,1v11.7c0,.6-.4,1-1,1h-5.8c-.6,0-1-.4-1-1V2.19c0-.6.4-1,1-1h-.6c-.6,0-1,.4-1,1v6.1h0v4.3h-.2Z"/>
        <path class="cls-19" d="M17.5,2.19v11.7c0,.6.4,1,1,1h5.8c.6,0,1-.4,1-1V2.19c0-.6-.4-1-1-1h-5.8c-.6,0-1,.4-1,1ZM24.4,12.29v1c0,.6-.4,1-1,1h-4c-.6,0-1-.4-1-1v-3.3c0-.6.4-1,1-1h4c.6,0,1,.4,1,1v2.3ZM18.4,4.09v-.8c0-.6.4-1,1-1h4c.6,0,1,.4,1,1v3.5c0,.6-.4,1-1,1h-4c-.6,0-1-.4-1-1v-2.7Z"/>
        <path class="cls-19" d="M19.4,3.09h4c.6,0,1,.4,1,1v-.8c0-.6-.4-1-1-1h-4c-.6,0-1,.4-1,1v.8c0-.6.4-1,1-1Z"/>
        <path class="cls-1" d="M19.4,3.09h4c.6,0,1,.4,1,1v-.8c0-.6-.4-1-1-1h-4c-.6,0-1,.4-1,1v.8c0-.6.4-1,1-1Z"/>
        <rect class="cls-19" x="18.4" y="3.09" width="6" height="4.7" rx="1" ry="1"/>
        <rect class="cls-1" x="18.4" y="3.09" width="6" height="4.7" rx="1" ry="1"/>
        <rect class="cls-1" x="18.4" y="3.09" width="6" height="4.7" rx="1" ry="1"/>
        <path class="cls-19" d="M23.4,13.29h-4c-.6,0-1-.4-1-1v1c0,.6.4,1,1,1h4c.6,0,1-.4,1-1v-1c0,.6-.4,1-1,1Z"/>
        <path class="cls-1" d="M23.4,13.29h-4c-.6,0-1-.4-1-1v1c0,.6.4,1,1,1h4c.6,0,1-.4,1-1v-1c0,.6-.4,1-1,1Z"/>
        <path class="cls-19" d="M19.4,9.39h4c.6,0,1,.4,1,1v-.4c0-.6-.4-1-1-1h-4c-.6,0-1,.4-1,1v.4c0-.6.4-1,1-1Z"/>
        <path class="cls-1" d="M19.4,9.39h4c.6,0,1,.4,1,1v-.4c0-.6-.4-1-1-1h-4c-.6,0-1,.4-1,1v.4c0-.6.4-1,1-1Z"/>
        <rect class="cls-19" x="18.4" y="9.39" width="6" height="3.9" rx="1" ry="1"/>
        <rect class="cls-1" x="18.4" y="9.39" width="6" height="3.9" rx="1" ry="1"/>
        <rect class="cls-1" x="18.4" y="9.39" width="6" height="3.9" rx="1" ry="1"/>
        <path class="cls-17" d="M11.9,12.29v-.5h-4.4c-.1,0-.2.1-.2.2v1c0,.1.1.2.2.2h.4c0-.6.4-1,1-1h3v.1Z"/>
        <path class="cls-21" d="M7.5,13.29c-.1,0-.2-.1-.2-.2v-1c0-.1.1-.2.2-.2h4.4v.5h.7v-1.1s0-.2-.2-.2h-4.9c-.6,0-1,.4-1,1v1c0,.6.4,1,1,1h.4v-.8h-.4Z"/>
        <path class="cls-17" d="M33.4,12.29h.5c.6,0,1,.4,1,1h.4c.1,0,.2-.1.2-.2v-1c0-.1-.1-.2-.2-.2h-4.4v.5h2.5v-.1Z"/>
        <path class="cls-21" d="M30.4,11.09c-.1,0-.2.1-.2.2v1h.7v-.5h4.4c.1,0,.2.1.2.2v1c0,.1-.1.2-.2.2h-.4v.8h.4c.6,0,1-.4,1-1v-1c0-.6-.4-1-1-1h-4.9v.1Z"/>
        <path class="cls-11" d="M7.9,17.49v.8c0,.4.2.7.6.9h4.1c.1,0,.3-.1.3-.3v-.2h-4.2c-.2,0-.3-.1-.3-.3s.1-.3.3-.3h4.2v-2.6c0,.1-.1.3-.3.3h-3.3c-.6,0-1-.4-1-1v-1.8c0-.6.4-1,1-1h-.4c-.6,0-1,.4-1,1h0v4.5Z"/>
        <path class="cls-11" d="M34.9,13.29c0-.6-.4-1-1-1h-.5c.6,0,1,.4,1,1v2.5c0,.1-.1.3-.3.3h-4.3v2.4s0-.1.1-.1h3.9c.2,0,.5.2.5.5s0,.1-.1.1h-4.4v.3h4.7c.1,0,.3-.1.3-.3v-5.7h.1Z"/>
        <path class="cls-19" d="M11.9,12.29h-2.6c-.6,0-1,.4-1,1v1.8c0,.6.4,1,1,1h3.3c.1,0,.3-.1.3-.3v-3.3c0-.1,0-.2-.2-.2h-.8Z"/>
        <path class="cls-19" d="M34.2,16.09c.1,0,.3-.1.3-.3v-2.5c0-.6-.4-1-1-1h-3.3c-.1,0-.2.1-.2.2v3.5h4.3l-.1.1Z"/>
        <path class="cls-15" d="M8.6,18.39c-.2,0-.3.1-.3.3s.1.3.3.3h4.2v-.4h-4.2v-.2Z"/>
        <path class="cls-15" d="M34.3,18.99s.1,0,.1-.1c0-.2-.2-.5-.5-.5h-3.9s-.1,0-.1.1v.5h4.4Z"/>
        <path class="cls-14" d="M29.4,10.59h1c.6,0,1-.4,1-1v-4c0-.4-.2-.7-.5-.8v.5c0,.6-.4,1-1,1h0c-.6,0-1-.4-1-1v-.5c-.3.2-.5.5-.5.8v4c0,.6.4,1,1,1ZM28.8,6.19c.2.3.5.5.9.5h.4c.4,0,.7-.2.9-.5,0,.1.1.3.1.5v2.8c0,.6-.4,1-1,1h-.4c-.6,0-1-.4-1-1v-2.8c0-.2,0-.3.1-.5Z"/>
        <path class="cls-14" d="M12.4,10.59h1c.6,0,1-.4,1-1v-4c0-.4-.2-.7-.5-.8v.5c0,.6-.4,1-1,1h0c-.6,0-1-.4-1-1v-.5c-.3.2-.5.5-.5.8v4c0,.6.4,1,1,1ZM11.8,6.19c.2.3.5.5.9.5h.4c.4,0,.7-.2.9-.5,0,.1.1.3.1.5v2.8c0,.6-.4,1-1,1h-.4c-.6,0-1-.4-1-1v-2.8c0-.2,0-.3.1-.5Z"/>
        <path class="cls-7" d="M11.7,9.39c0,.6.4,1,1,1h.4c.6,0,1-.4,1-1v-2.8c0-.2,0-.3-.1-.5-.2.3-.5.5-.9.5h-.4c-.4,0-.7-.2-.9-.5,0,.1-.1.3-.1.5v2.8Z"/>
        <path class="cls-7" d="M28.7,9.39c0,.6.4,1,1,1h.4c.6,0,1-.4,1-1v-2.8c0-.2,0-.3-.1-.5-.2.3-.5.5-.9.5h-.4c-.4,0-.7-.2-.9-.5,0,.1-.1.3-.1.5v2.8Z"/>
        <path class="cls-16" d="M12.9,6.29h0c.6,0,1-.4,1-1v-2c0-.6-.4-1-1-1h0c-.6,0-1,.4-1,1v2c0,.6.4,1,1,1ZM12.9,3.89h0c.3,0,.6.3.6.6v.7c0,.3-.3.6-.6.6h0c-.3,0-.6-.3-.6-.6v-.7c0-.3.3-.6.6-.6Z"/>
        <path class="cls-16" d="M29.9,6.29h0c.6,0,1-.4,1-1v-2c0-.6-.4-1-1-1h0c-.6,0-1,.4-1,1v2c0,.6.4,1,1,1ZM29.9,3.89h0c.3,0,.6.3.6.6v.7c0,.3-.3.6-.6.6h0c-.3,0-.6-.3-.6-.6v-.7c0-.3.3-.6.6-.6Z"/>
        <rect class="cls-20" x="12.3" y="3.89" width="1.3" height="1.9" rx=".6" ry=".6"/>
        <rect class="cls-20" x="29.3" y="3.89" width="1.3" height="1.9" rx=".6" ry=".6"/>
        <path class="cls-2" d="M14.7,19.29v5c0,.2.2.4.4.4h.6c.2,0,.4-.2.4-.4v-7.3h-1.4v2.3h0ZM14.8,19.99c0-.2.2-.3.4-.3h.3c.2,0,.4.2.4.3v4.3c0,.2-.2.3-.4.3h-.3c-.2,0-.4-.2-.4-.3v-4.3Z"/>
        <path class="cls-5" d="M15.2,24.69h.3c.2,0,.4-.2.4-.3v-4.3c0-.2-.2-.3-.4-.3h-.3c-.2,0-.4.2-.4.3v4.3c0,.2.2.3.4.3ZM15.1,20.99c0-.1.1-.2.2-.2h.2c.1,0,.2.1.2.2v2.9c0,.1-.1.2-.2.2h-.2c-.1,0-.2-.1-.2-.2v-2.9Z"/>
        <path class="cls-22" d="M15.3,24.09h.2c.1,0,.2-.1.2-.2v-2.9c0-.1-.1-.2-.2-.2h-.2c-.1,0-.2.1-.2.2v2.9c0,.1.1.2.2.2ZM15.2,22.19s0-.1.1-.1h0s.1,0,.1.1v1.6s0,.1-.1.1h0s-.1,0-.1-.1v-1.6Z"/>
        <rect class="cls-12" x="15.2" y="21.99" width=".3" height="1.8" rx=".1" ry=".1"/>
        <path class="cls-2" d="M26.6,16.99v7.3c0,.2.2.4.4.4h.6c.2,0,.4-.2.4-.4v-7.3h-1.4ZM27.9,24.29c0,.2-.2.3-.4.3h-.3c-.2,0-.4-.2-.4-.3v-4.3c0-.2.2-.3.4-.3h.3c.2,0,.4.2.4.3v4.3Z"/>
        <path class="cls-5" d="M27.5,19.69h-.3c-.2,0-.4.2-.4.3v4.3c0,.2.2.3.4.3h.3c.2,0,.4-.2.4-.3v-4.3c0-.2-.2-.3-.4-.3ZM27.6,23.89c0,.1-.1.2-.2.2h-.2c-.1,0-.2-.1-.2-.2v-2.9c0-.1.1-.2.2-.2h.2c.1,0,.2.1.2.2v2.9Z"/>
        <path class="cls-22" d="M27.4,20.79h-.2c-.1,0-.2.1-.2.2v2.9c0,.1.1.2.2.2h.2c.1,0,.2-.1.2-.2v-2.9c0-.1-.1-.2-.2-.2ZM27.5,23.69s0,.1-.1.1h0s-.1,0-.1-.1v-1.6s0-.1.1-.1h0s.1,0,.1.1v1.6Z"/>
        <rect class="cls-12" x="27.2" y="21.99" width=".3" height="1.8" rx=".1" ry=".1"/>
        <path class="cls-2" d="M21.5,24.29c0,.2.2.4.4.4h.6c.2,0,.4-.2.4-.4v-7.3h-1.4v7.3ZM21.7,19.39c0-.2.2-.4.4-.4h.3c.2,0,.4.2.4.4v4.9c0,.2-.2.4-.4.4h-.3c-.2,0-.4-.2-.4-.4v-4.9Z"/>
        <path class="cls-5" d="M22.1,24.69h.3c.2,0,.4-.2.4-.4v-4.9c0-.2-.2-.4-.4-.4h-.3c-.2,0-.4.2-.4.4v4.9c0,.2.2.4.4.4ZM21.9,20.99c0-.1.1-.2.2-.2h.2c.1,0,.2.1.2.2v2.9c0,.1-.1.2-.2.2h-.2c-.1,0-.2-.1-.2-.2v-2.9Z"/>
        <path class="cls-22" d="M22.2,24.09h.2c.1,0,.2-.1.2-.2v-2.9c0-.1-.1-.2-.2-.2h-.2c-.1,0-.2.1-.2.2v2.9c0,.1.1.2.2.2ZM22.1,22.19s0-.1.1-.1h0s.1,0,.1.1v1.6s0,.1-.1.1h0s-.1,0-.1-.1v-1.6Z"/>
        <rect class="cls-12" x="22.1" y="21.99" width=".3" height="1.8" rx=".1" ry=".1"/>
        <path class="cls-2" d="M19.7,24.29c0,.2.2.4.4.4h.6c.2,0,.4-.2.4-.4v-7.3h-1.4v7.3ZM19.9,19.39c0-.2.2-.4.4-.4h.3c.2,0,.4.2.4.4v4.9c0,.2-.2.4-.4.4h-.3c-.2,0-.4-.2-.4-.4v-4.9Z"/>
        <path class="cls-5" d="M20.3,24.69h.3c.2,0,.4-.2.4-.4v-4.9c0-.2-.2-.4-.4-.4h-.3c-.2,0-.4.2-.4.4v4.9c0,.2.2.4.4.4ZM20.2,20.99c0-.1.1-.2.2-.2h.2c.1,0,.2.1.2.2v2.9c0,.1-.1.2-.2.2h-.2c-.1,0-.2-.1-.2-.2v-2.9Z"/>
        <path class="cls-22" d="M20.4,24.09h.2c.1,0,.2-.1.2-.2v-2.9c0-.1-.1-.2-.2-.2h-.2c-.1,0-.2.1-.2.2v2.9c0,.1.1.2.2.2ZM20.3,22.19s0-.1.1-.1h0s.1,0,.1.1v1.6s0,.1-.1.1h0s-.1,0-.1-.1v-1.6Z"/>
        <rect class="cls-12" x="20.3" y="21.99" width=".3" height="1.8" rx=".1" ry=".1"/>
        <path class="cls-2" d="M16.9,24.29c0,.2.2.4.4.4h.6c.2,0,.4-.2.4-.4v-7.3h-1.4v7.3ZM17.1,18.79c0-.2.2-.4.4-.4h.3c.2,0,.4.2.4.4v5.4c0,.2-.2.4-.4.4h-.3c-.2,0-.4-.2-.4-.4v-5.4Z"/>
        <path class="cls-5" d="M17.5,24.69h.3c.2,0,.4-.2.4-.4v-5.4c0-.2-.2-.4-.4-.4h-.3c-.2,0-.4.2-.4.4v5.4c0,.2.2.4.4.4ZM17.3,20.99c0-.1.1-.2.2-.2h.2c.1,0,.2.1.2.2v2.9c0,.1-.1.2-.2.2h-.2c-.1,0-.2-.1-.2-.2v-2.9Z"/>
        <path class="cls-22" d="M17.6,24.09h.2c.1,0,.2-.1.2-.2v-2.9c0-.1-.1-.2-.2-.2h-.2c-.1,0-.2.1-.2.2v2.9c0,.1.1.2.2.2ZM17.5,22.19s0-.1.1-.1h0s.1,0,.1.1v1.6s0,.1-.1.1h0s-.1,0-.1-.1v-1.6Z"/>
        <rect class="cls-12" x="17.5" y="21.99" width=".3" height="1.8" rx=".1" ry=".1"/>
        <path class="cls-2" d="M24.4,24.29c0,.2.2.4.4.4h.6c.2,0,.4-.2.4-.4v-7.3h-1.4v7.3ZM24.5,18.79c0-.2.2-.4.4-.4h.3c.2,0,.4.2.4.4v5.4c0,.2-.2.4-.4.4h-.3c-.2,0-.4-.2-.4-.4v-5.4Z"/>
        <path class="cls-5" d="M24.9,24.69h.3c.2,0,.4-.2.4-.4v-5.4c0-.2-.2-.4-.4-.4h-.3c-.2,0-.4.2-.4.4v5.4c0,.2.2.4.4.4ZM24.8,20.99c0-.1.1-.2.2-.2h.2c.1,0,.2.1.2.2v2.9c0,.1-.1.2-.2.2h-.2c-.1,0-.2-.1-.2-.2v-2.9Z"/>
        <path class="cls-22" d="M25,24.09h.2c.1,0,.2-.1.2-.2v-2.9c0-.1-.1-.2-.2-.2h-.2c-.1,0-.2.1-.2.2v2.9c0,.1.1.2.2.2ZM24.9,22.19s0-.1.1-.1h0s.1,0,.1.1v1.6s0,.1-.1.1h0s-.1,0-.1-.1v-1.6Z"/>
        <rect class="cls-12" x="24.9" y="21.99" width=".3" height="1.8" rx=".1" ry=".1"/>
      </g>
      <g>
        <circle class="cls-6" cx="7.97" cy="20.39" r="5.97"/>
        <path class="cls-8" d="M8,15.79c-1.8,0-3.4.8-4.5,2-.9,1.1-1.5,2.5-1.5,4,0,3.3,2.7,6,6,6s6-2.7,6-6-.6-2.9-1.5-4c-1.1-1.2-2.7-2-4.5-2ZM8,27.39c-3.1,0-5.6-2.5-5.6-5.6s2.5-5.6,5.6-5.6,5.6,2.5,5.6,5.6-2.5,5.6-5.6,5.6Z"/>
        <path class="cls-8" d="M8,23.79c-1,0-1.8-.8-1.9-1.8v.2c0,1.1.9,2,2,2s2-.9,2-2,0-.1,0-.2c-.1,1-.9,1.8-1.9,1.8h-.2Z"/>
        <path class="cls-6" d="M8,17.79c-2.4,0-4.3,1.9-4.4,4.2.1,2.3,2,4.2,4.4,4.2s4.3-1.9,4.4-4.2c-.1-2.3-2-4.2-4.4-4.2ZM9.9,22.19c0,1.1-.9,2-2,2s-2-.9-2-2,0-.1,0-.2v-.2c0-1.1.9-2,2-2s2,.9,2,2,0,.1,0,.2v.2Z"/>
        <path class="cls-10" d="M8,16.19c-3.1,0-5.6,2.5-5.6,5.6s2.5,5.6,5.6,5.6,5.6-2.5,5.6-5.6-2.5-5.6-5.6-5.6ZM12.4,21.99c-.1,2.3-2,4.2-4.4,4.2s-4.3-1.9-4.4-4.2v-.2c0-2.4,2-4.4,4.4-4.4s4.4,2,4.4,4.4,0,.1,0,.2Z"/>
        <path class="cls-18" d="M8,19.79c-1.1,0-2,.9-2,2s0,.1,0,.2c.1,1,.9,1.8,1.9,1.8s1.8-.8,1.9-1.8v-.2c0-1.1-.9-2-2-2h.2ZM8,23.19c-.8,0-1.4-.6-1.4-1.4s.6-1.4,1.4-1.4,1.4.6,1.4,1.4-.6,1.4-1.4,1.4Z"/>
        <path class="cls-18" d="M8,21.59s-.2,0-.2.2.3.2.3,0,0-.2-.2-.2h.1Z"/>
        <path class="cls-11" d="M8,20.39c-.8,0-1.4.6-1.4,1.4s.6,1.4,1.4,1.4,1.4-.6,1.4-1.4-.6-1.4-1.4-1.4ZM7.8,21.79s0-.2.2-.2.2,0,.2.2-.3.2-.3,0h-.1Z"/>
      </g>
      <g>
        <circle class="cls-6" cx="34.47" cy="20.39" r="5.97"/>
        <path class="cls-8" d="M34.5,15.79c-1.8,0-3.4.8-4.5,2-.9,1.1-1.5,2.5-1.5,4,0,3.3,2.7,6,6,6s6-2.7,6-6-.6-2.9-1.5-4c-1.1-1.2-2.7-2-4.5-2ZM34.5,27.39c-3.1,0-5.6-2.5-5.6-5.6s2.5-5.6,5.6-5.6,5.6,2.5,5.6,5.6-2.5,5.6-5.6,5.6Z"/>
        <path class="cls-8" d="M34.5,23.79c-1,0-1.8-.8-1.9-1.8v.2c0,1.1.9,2,2,2s2-.9,2-2,0-.1,0-.2c-.1,1-.9,1.8-1.9,1.8h-.2Z"/>
        <path class="cls-6" d="M34.5,17.79c-2.4,0-4.3,1.9-4.4,4.2.1,2.3,2,4.2,4.4,4.2s4.3-1.9,4.4-4.2c-.1-2.3-2-4.2-4.4-4.2ZM36.4,22.19c0,1.1-.9,2-2,2s-2-.9-2-2,0-.1,0-.2v-.2c0-1.1.9-2,2-2s2,.9,2,2,0,.1,0,.2v.2Z"/>
        <path class="cls-10" d="M34.5,16.19c-3.1,0-5.6,2.5-5.6,5.6s2.5,5.6,5.6,5.6,5.6-2.5,5.6-5.6-2.5-5.6-5.6-5.6ZM38.9,21.99c-.1,2.3-2,4.2-4.4,4.2s-4.3-1.9-4.4-4.2v-.2c0-2.4,2-4.4,4.4-4.4s4.4,2,4.4,4.4,0,.1,0,.2Z"/>
        <path class="cls-18" d="M34.5,19.79c-1.1,0-2,.9-2,2s0,.1,0,.2c.1,1,.9,1.8,1.9,1.8s1.8-.8,1.9-1.8v-.2c0-1.1-.9-2-2-2h.2ZM34.5,23.19c-.8,0-1.4-.6-1.4-1.4s.6-1.4,1.4-1.4,1.4.6,1.4,1.4-.6,1.4-1.4,1.4Z"/>
        <path class="cls-18" d="M34.5,21.59s-.2,0-.2.2.3.2.3,0,0-.2-.2-.2h.1Z"/>
        <path class="cls-11" d="M34.5,20.39c-.8,0-1.4.6-1.4,1.4s.6,1.4,1.4,1.4,1.4-.6,1.4-1.4-.6-1.4-1.4-1.4ZM34.3,21.79s0-.2.2-.2.2,0,.2.2-.3.2-.3,0h-.1Z"/>
      </g>
    </g>
  </g>
</svg>