<?xml version="1.0" encoding="UTF-8"?>
<svg id="Layer_2" overflow="visible" data-name="Layer 2" xmlns="http://www.w3.org/2000/svg" viewBox="0 0 102.7 49.47">
  <defs>
    <style>
      .cls-1 {
        fill: #706f8b;
      }

      .cls-2 {
        fill: #231f20;
      }

      .cls-3 {
        fill: #606078;
      }

      .cls-4 {
        fill: #fbaa32;
      }

      .cls-5 {
        fill: #e8ae2c;
      }

      .cls-6 {
        fill: #cc8d2a;
      }

      .cls-7 {
        fill: #131313;
      }

      .cls-8 {
        fill: #febd30;
      }

      .cls-9 {
        fill: #333;
      }
    </style>
  </defs>
  <g id="Layer_1-2" data-name="Layer 1">
    <g>
      <path class="cls-2" d="M68.3,47.7c-2.13,0-4.14-.83-5.65-2.35-.36-.36-.69-.76-.98-1.18-.52-.76-.89-1.6-1.12-2.47h-1.9c-.35,1.37-1.07,2.63-2.1,3.65-.18.18-.37.35-.56.51-1.43,1.18-3.24,1.83-5.09,1.83-3.73,0-6.88-2.57-7.76-6.04h-1.62c-.92,3.41-4.04,5.94-7.73,5.94s-6.83-2.54-7.74-5.97h-1.53c-.9,3.43-4.03,5.97-7.74,5.97s-6.86-2.55-7.75-6h-.85c-2.34,0-4.39-1.36-5.36-3.4h-.34c-1.4,0-2.5-1.1-2.5-2.5v-3.2c0-1.33,1-2.39,2.3-2.49v-7.41c0-.57.04-1.14.13-1.7.16-1.05.48-2.08.95-3.06.21-.44.44-.86.7-1.26l5.41-10.01.05-.07c.04-.05.36-.54.94-1.19.34-.38.9-.96,1.64-1.54.28-.22.57-.44.89-.65,1.65-1.08,3.4-1.62,5.2-1.62h15.36l.4-1.5h15.84v1.5h3.7V.01h3.9s12.34-.01,12.34-.01l.3,1.5h14.36c2.69,0,5.02.68,6.92,2.01.26.18.51.37.75.58.98.83,1.86,1.87,2.6,3.09.19.31.37.63.54.96.34.66.66,1.38.95,2.15l2.01,5.84c.28.38.54.78.77,1.19.14.26.28.53.4.8.25.54.45,1.12.6,1.7.08.3.14.59.19.9.1.62.16,1.24.16,1.87v7.4c1.35.05,2.4,1.13,2.4,2.5v3.2c0,1.4-1.1,2.5-2.5,2.5h-.54c-.97,2.04-3.01,3.4-5.36,3.4h-.75c-.89,3.45-4.03,6-7.75,6s-6.86-2.55-7.75-6h-1.98c-.22.91-.61,1.78-1.14,2.57-.29.42-.62.82-.98,1.18-1.51,1.51-3.52,2.35-5.65,2.35Z"/>
      <path class="cls-1" d="M100.1,32h-1.8v4.2h1.9c.3,0,.5-.2.5-.5v-3.2c0-.3-.2-.5-.5-.5h-.1Z"/>
      <path class="cls-2" d="M62.3,40.2c0,3.3,2.7,6,6,6s6-2.7,6-6c0-.04,0-.07,0-.11,0,0,0,0,0,.01h5.5c0,3.3,2.7,6,6,6s6-2.7,6-6h2.5c2,0,3.6-1.5,3.9-3.4h2c.3,0,.5-.2.5-.5v-3.2c0-.3-.2-.5-.5-.5h-1.9v-9.4c0-2.1-.7-4-1.9-5.5l-2.1-6.1c-2.1-5.6-5.6-7.5-9.9-7.5h-16l-.3-1.5h-12.6v1.5h-7.7v-1.5h-12.3l-.4,1.5h-16.9c-4.3,0-7,4.1-7,4.1l-5.4,10c-.9,1.4-1.5,3.1-1.5,5v9.4h-1.8c-.3,0-.5.2-.5.5v3.2c0,.3.2.5.5.5h1.8c.3,1.9,1.9,3.4,3.9,3.4h2.5M10.8,40.1c0,3.3,2.7,6,6,6s6-2.7,6-6h5c0,3.3,2.7,6,6,6s6-2.7,6-6h5l.1.1c0,3.3,2.7,6,6,6s6-2.7,6-6c0-.04,0-.07,0-.1h5.4"/>
      <path class="cls-8" d="M13.3,14.1h19.8v-1.7l2-8.4h-16.9c-4.3,0-7,4.1-7,4.1l-5.4,10h0c1.6-2.4,4.4-4,7.5-4Z"/>
      <polygon class="cls-8" points="47.3 12.4 47.2 14.1 56 14.1 56.1 12.4 56.1 12.4 55.7 2.5 55.5 2.5 55.5 4 47.8 4 47.8 2.5 47.3 12.4 47.3 12.4"/>
      <polygon class="cls-8" points="57.4 12.4 58.4 12.4 68.2 12.4 69.3 12.4 67.1 2.5 67.1 2.5 66.1 2.5 57.5 2.5 56.9 2.5 57.3 12.4 57.4 12.4"/>
      <path class="cls-8" d="M70.3,12.4v1.7h19c2.9,0,5.5,1.4,7.1,3.5h0l-2.1-6.1c-2.1-5.6-5.6-7.5-9.9-7.5h-16l1.9,8.4h0Z"/>
      <polygon class="cls-8" points="35.3 12.4 45.1 12.4 46.3 12.4 46.8 2.5 45.9 2.5 37.3 2.5 36.5 2.5 34.3 12.4 35.3 12.4"/>
      <path class="cls-1" d="M4.3,32.5h-1.8c-.3,0-.5.2-.5.5v3.2c0,.3.2.5.5.5h1.9v-4.2h-.1Z"/>
      <path class="cls-6" d="M72.8,36.1c.9,1.1,1.5,2.5,1.5,4h5.5c0-1.5.6-2.9,1.5-4h-8.5Z"/>
      <path class="cls-5" d="M46.3,36.1V12.4h-12v21.7c3.1.3,5.5,2.8,5.5,6h5c0-1.5.6-2.9,1.5-4h0Z"/>
      <path class="cls-6" d="M4.3,36.1v.6c.3,1.9,1.9,3.4,3.9,3.4h2.5c0-1.5.6-2.9,1.5-4H4.2h.1Z"/>
      <path class="cls-6" d="M21.3,36.1c.9,1.1,1.5,2.5,1.5,4h5c0-1.5.6-2.9,1.5-4h-8Z"/>
      <path class="cls-6" d="M90.3,36.1c.9,1.1,1.5,2.5,1.5,4h2.5c2,0,3.6-1.5,3.9-3.4v-.6h-8,.1Z"/>
      <path class="cls-4" d="M89.3,14.1h-19v20.3c1,.3,1.9.9,2.5,1.7h8.5c1.1-1.2,2.7-2,4.5-2s3.4.8,4.5,2h8v-13c0-2.1-.7-4-1.9-5.5-1.7-2.1-4.2-3.5-7.1-3.5Z"/>
      <path class="cls-4" d="M56,14.1h-8.8v21.1c1-.7,2.2-1.2,3.5-1.2s3.4.8,4.5,2h.8V14.1h0Z"/>
      <path class="cls-4" d="M12.3,36.1c1.1-1.2,2.7-2,4.5-2s3.4.8,4.5,2h8c1-1.1,2.3-1.8,3.8-2V14.1H13.3c-3.1,0-5.9,1.6-7.5,4-.9,1.4-1.5,3.1-1.5,5v13h8Z"/>
      <path class="cls-2" d="M33.1,14.1v20h1.2V12.4h-1.2v1.7Z"/>
      <path class="cls-2" d="M70.3,14.1v-1.7h-1v21.8c.3,0,.6.1,1,.2V14.1Z"/>
      <path class="cls-5" d="M68.3,34.1h1V12.4h-12v23.7h-2c.9,1.1,1.5,2.5,1.5,4h5.5c0-3.3,2.7-6,6-6Z"/>
      <path class="cls-2" d="M50.8,34.1c-1.3,0-2.5.4-3.5,1.2-.3.3-.7.5-.9.9-.9,1.1-1.5,2.5-1.5,4,0,3.3,2.7,6,6,6s6-2.7,6-6-.6-2.9-1.5-4c-1.1-1.2-2.7-2-4.5-2l-.1-.1ZM50.8,45.7c-3.1,0-5.6-2.5-5.6-5.6s2.5-5.6,5.6-5.6,5.6,2.5,5.6,5.6-2.5,5.6-5.6,5.6Z"/>
      <path class="cls-2" d="M50.8,35.7c-2.4,0-4.4,2-4.4,4.4s0,.1,0,.2c.1-2.3,2-4.2,4.4-4.2s4.3,1.9,4.4,4.2v-.2c0-2.4-2-4.4-4.4-4.4Z"/>
      <path class="cls-2" d="M50.8,42.1c-1,0-1.8-.8-1.9-1.8v.2c0,1.1.9,2,2,2s2-.9,2-2,0-.1,0-.2c-.1,1-.9,1.8-1.9,1.8h-.2Z"/>
      <path class="cls-1" d="M50.8,36.1c-2.4,0-4.3,1.9-4.4,4.2.1,2.3,2,4.2,4.4,4.2s4.3-1.9,4.4-4.2c-.1-2.3-2-4.2-4.4-4.2ZM52.8,40.5c0,1.1-.9,2-2,2s-2-.9-2-2,0-.1,0-.2v-.2c0-1.1.9-2,2-2s2,.9,2,2,0,.1,0,.2v.2Z"/>
      <path class="cls-9" d="M50.8,34.5c-3.1,0-5.6,2.5-5.6,5.6s2.5,5.6,5.6,5.6,5.6-2.5,5.6-5.6-2.5-5.6-5.6-5.6ZM55.2,40.3c-.1,2.3-2,4.2-4.4,4.2s-4.3-1.9-4.4-4.2v-.2c0-2.4,2-4.4,4.4-4.4s4.4,2,4.4,4.4,0,.1,0,.2Z"/>
      <path class="cls-7" d="M50.8,38.1c-1.1,0-2,.9-2,2s0,.1,0,.2c.1,1,.9,1.8,1.9,1.8s1.8-.8,1.9-1.8v-.2c0-1.1-.9-2-2-2h.2ZM50.8,41.5c-.8,0-1.4-.6-1.4-1.4s.6-1.4,1.4-1.4,1.4.6,1.4,1.4-.6,1.4-1.4,1.4Z"/>
      <path class="cls-7" d="M50.8,39.9s-.2,0-.2.2.3.2.3,0,0-.2-.2-.2h.1Z"/>
      <path class="cls-4" d="M50.8,38.7c-.8,0-1.4.6-1.4,1.4s.6,1.4,1.4,1.4,1.4-.6,1.4-1.4-.6-1.4-1.4-1.4ZM50.6,40.1s0-.2.2-.2.2,0,.2.2-.3.2-.3,0h-.1Z"/>
      <path class="cls-2" d="M16.8,35.7c-2.4,0-4.4,2-4.4,4.4s0,.1,0,.2c.1-2.3,2-4.2,4.4-4.2s4.3,1.9,4.4,4.2v-.2c0-2.4-2-4.4-4.4-4.4Z"/>
      <path class="cls-2" d="M85.8,34.1c-1.8,0-3.4.8-4.5,2-.9,1.1-1.5,2.5-1.5,4,0,3.3,2.7,6,6,6s6-2.7,6-6-.6-2.9-1.5-4c-1.1-1.2-2.7-2-4.5-2ZM85.8,45.7c-3.1,0-5.6-2.5-5.6-5.6s2.5-5.6,5.6-5.6,5.6,2.5,5.6,5.6-2.5,5.6-5.6,5.6Z"/>
      <path class="cls-2" d="M85.8,35.7c-2.4,0-4.4,2-4.4,4.4s0,.1,0,.2c.1-2.3,2-4.2,4.4-4.2s4.3,1.9,4.4,4.2v-.2c0-2.4-2-4.4-4.4-4.4Z"/>
      <path class="cls-2" d="M85.8,42.1c-1,0-1.8-.8-1.9-1.8v.2c0,1.1.9,2,2,2s2-.9,2-2,0-.1,0-.2c-.1,1-.9,1.8-1.9,1.8h-.2Z"/>
      <path class="cls-1" d="M85.8,36.1c-2.4,0-4.3,1.9-4.4,4.2.1,2.3,2,4.2,4.4,4.2s4.3-1.9,4.4-4.2c-.1-2.3-2-4.2-4.4-4.2ZM87.8,40.5c0,1.1-.9,2-2,2s-2-.9-2-2,0-.1,0-.2v-.2c0-1.1.9-2,2-2s2,.9,2,2,0,.1,0,.2v.2Z"/>
      <path class="cls-9" d="M85.8,34.5c-3.1,0-5.6,2.5-5.6,5.6s2.5,5.6,5.6,5.6,5.6-2.5,5.6-5.6-2.5-5.6-5.6-5.6ZM90.2,40.3c-.1,2.3-2,4.2-4.4,4.2s-4.3-1.9-4.4-4.2v-.2c0-2.4,2-4.4,4.4-4.4s4.4,2,4.4,4.4,0,.1,0,.2Z"/>
      <path class="cls-7" d="M85.8,38.1c-1.1,0-2,.9-2,2s0,.1,0,.2c.1,1,.9,1.8,1.9,1.8s1.8-.8,1.9-1.8v-.2c0-1.1-.9-2-2-2h.2ZM85.8,41.5c-.8,0-1.4-.6-1.4-1.4s.6-1.4,1.4-1.4,1.4.6,1.4,1.4-.6,1.4-1.4,1.4Z"/>
      <path class="cls-7" d="M85.8,39.9s-.2,0-.2.2.3.2.3,0,0-.2-.2-.2h.1Z"/>
      <path class="cls-4" d="M85.8,38.7c-.8,0-1.4.6-1.4,1.4s.6,1.4,1.4,1.4,1.4-.6,1.4-1.4-.6-1.4-1.4-1.4ZM85.7,40.1s0-.2.2-.2.2,0,.2.2-.3.2-.3,0h-.1Z"/>
      <path class="cls-2" d="M70.3,34.4c-.3-.1-.6-.2-1-.2h-1c-3.3,0-6,2.7-6,6s2.7,6,6,6,6-2.7,6-6-.6-2.9-1.5-4c-.7-.8-1.6-1.4-2.5-1.7v-.1ZM68.3,45.7c-3.1,0-5.6-2.5-5.6-5.6s2.5-5.6,5.6-5.6,5.6,2.5,5.6,5.6-2.5,5.6-5.6,5.6Z"/>
      <path class="cls-2" d="M68.3,35.7c-2.4,0-4.4,2-4.4,4.4s0,.1,0,.2c.1-2.3,2-4.2,4.4-4.2s4.3,1.9,4.4,4.2v-.2c0-2.4-2-4.4-4.4-4.4Z"/>
      <path class="cls-2" d="M68.3,42.1c-1,0-1.8-.8-1.9-1.8v.2c0,1.1.9,2,2,2s2-.9,2-2,0-.1,0-.2c-.1,1-.9,1.8-1.9,1.8h-.2Z"/>
      <path class="cls-1" d="M68.3,36.1c-2.4,0-4.3,1.9-4.4,4.2.1,2.3,2,4.2,4.4,4.2s4.3-1.9,4.4-4.2c-.1-2.3-2-4.2-4.4-4.2ZM70.3,40.5c0,1.1-.9,2-2,2s-2-.9-2-2,0-.1,0-.2v-.2c0-1.1.9-2,2-2s2,.9,2,2,0,.1,0,.2v.2Z"/>
      <path class="cls-9" d="M68.3,34.5c-3.1,0-5.6,2.5-5.6,5.6s2.5,5.6,5.6,5.6,5.6-2.5,5.6-5.6-2.5-5.6-5.6-5.6ZM72.7,40.3c-.1,2.3-2,4.2-4.4,4.2s-4.3-1.9-4.4-4.2v-.2c0-2.4,2-4.4,4.4-4.4s4.4,2,4.4,4.4,0,.1,0,.2Z"/>
      <path class="cls-7" d="M68.3,38.1c-1.1,0-2,.9-2,2s0,.1,0,.2c.1,1,.9,1.8,1.9,1.8s1.8-.8,1.9-1.8v-.2c0-1.1-.9-2-2-2h.2ZM68.3,41.5c-.8,0-1.4-.6-1.4-1.4s.6-1.4,1.4-1.4,1.4.6,1.4,1.4-.6,1.4-1.4,1.4Z"/>
      <path class="cls-7" d="M68.3,39.9s-.2,0-.2.2.3.2.3,0,0-.2-.2-.2h.1Z"/>
      <path class="cls-4" d="M68.3,38.7c-.8,0-1.4.6-1.4,1.4s.6,1.4,1.4,1.4,1.4-.6,1.4-1.4-.6-1.4-1.4-1.4ZM68.1,40.1s0-.2.2-.2.2,0,.2.2-.3.2-.3,0h-.1Z"/>
      <path class="cls-2" d="M34.3,34.1h-1.2c-1.5.2-2.9.9-3.8,2-.9,1.1-1.5,2.5-1.5,4,0,3.3,2.7,6,6,6s6-2.7,6-6-2.4-5.7-5.5-6ZM33.8,45.7c-3.1,0-5.6-2.5-5.6-5.6s2.5-5.6,5.6-5.6,5.6,2.5,5.6,5.6-2.5,5.6-5.6,5.6Z"/>
      <path class="cls-2" d="M33.8,35.7c-2.4,0-4.4,2-4.4,4.4s0,.1,0,.2c.1-2.3,2-4.2,4.4-4.2s4.3,1.9,4.4,4.2v-.2c0-2.4-2-4.4-4.4-4.4Z"/>
      <path class="cls-2" d="M33.8,42.1c-1,0-1.8-.8-1.9-1.8v.2c0,1.1.9,2,2,2s2-.9,2-2,0-.1,0-.2c-.1,1-.9,1.8-1.9,1.8h-.2Z"/>
      <path class="cls-1" d="M33.8,36.1c-2.4,0-4.3,1.9-4.4,4.2.1,2.3,2,4.2,4.4,4.2s4.3-1.9,4.4-4.2c-.1-2.3-2-4.2-4.4-4.2ZM35.7,40.5c0,1.1-.9,2-2,2s-2-.9-2-2,0-.1,0-.2v-.2c0-1.1.9-2,2-2s2,.9,2,2,0,.1,0,.2v.2Z"/>
      <path class="cls-9" d="M33.8,34.5c-3.1,0-5.6,2.5-5.6,5.6s2.5,5.6,5.6,5.6,5.6-2.5,5.6-5.6-2.5-5.6-5.6-5.6ZM38.2,40.3c-.1,2.3-2,4.2-4.4,4.2s-4.3-1.9-4.4-4.2v-.2c0-2.4,2-4.4,4.4-4.4s4.4,2,4.4,4.4,0,.1,0,.2Z"/>
      <path class="cls-7" d="M33.8,38.1c-1.1,0-2,.9-2,2s0,.1,0,.2c.1,1,.9,1.8,1.9,1.8s1.8-.8,1.9-1.8v-.2c0-1.1-.9-2-2-2h.2ZM33.8,41.5c-.8,0-1.4-.6-1.4-1.4s.6-1.4,1.4-1.4,1.4.6,1.4,1.4-.6,1.4-1.4,1.4Z"/>
      <path class="cls-7" d="M33.8,39.9s-.2,0-.2.2.3.2.3,0,0-.2-.2-.2h.1Z"/>
      <path class="cls-4" d="M33.8,38.7c-.8,0-1.4.6-1.4,1.4s.6,1.4,1.4,1.4,1.4-.6,1.4-1.4-.6-1.4-1.4-1.4ZM33.6,40.1s0-.2.2-.2.2,0,.2.2-.3.2-.3,0h-.1Z"/>
      <polygon class="cls-2" points="34.3 12.4 36.5 2.5 35.5 2.5 35.1 4 33.1 12.4 34.3 12.4"/>
      <polygon class="cls-2" points="56.1 12.4 57.2 12.4 56.8 2.5 56.5 2.5 55.7 2.5 56.1 12.4 56.1 12.4"/>
      <path class="cls-2" d="M24.35,39.78c-.16-4.26-3.66-7.67-7.95-7.67s-7.97,3.57-7.97,7.97c0,.23.02.46.03.68-.02.24-.03.48-.03.71,0,4.41,3.59,8,8,8s8-3.59,8-8c0-.66-.03-1.21-.08-1.69Z"/>
      <path class="cls-2" d="M93.72,39.78c-.16-4.26-3.66-7.67-7.95-7.67s-7.97,3.57-7.97,7.97c0,.23.02.46.03.68-.02.24-.03.48-.03.71,0,4.41,3.59,8,8,8s8-3.59,8-8c0-.66-.03-1.21-.08-1.69Z"/>
      <path class="cls-2" d="M76.27,39.78c-.16-4.26-3.66-7.67-7.95-7.67s-7.97,3.57-7.97,7.97c0,.23.02.46.03.68-.02.24-.03.48-.03.71,0,4.41,3.59,8,8,8s8-3.59,8-8c0-.66-.03-1.21-.08-1.69Z"/>
      <path class="cls-2" d="M58.92,39.78c-.16-4.26-3.66-7.67-7.95-7.67s-7.97,3.57-7.97,7.97c0,.23.02.46.03.68-.02.24-.03.48-.03.71,0,4.41,3.59,8,8,8s8-3.59,8-8c0-.66-.03-1.21-.08-1.69Z"/>
      <path class="cls-2" d="M41.82,39.78c-.16-4.26-3.66-7.67-7.95-7.67s-7.97,3.57-7.97,7.97c0,.23.02.46.03.68-.02.24-.03.48-.03.71,0,4.41,3.59,8,8,8s8-3.59,8-8c0-.66-.03-1.21-.08-1.69Z"/>
      <g>
        <circle class="cls-1" cx="16.2" cy="41.39" r="5.97"/>
        <path class="cls-2" d="M16.23,36.78c-1.8,0-3.4.8-4.5,2-.9,1.1-1.5,2.5-1.5,4,0,3.3,2.7,6,6,6s6-2.7,6-6-.6-2.9-1.5-4c-1.1-1.2-2.7-2-4.5-2ZM16.23,48.38c-3.1,0-5.6-2.5-5.6-5.6s2.5-5.6,5.6-5.6,5.6,2.5,5.6,5.6-2.5,5.6-5.6,5.6Z"/>
        <path class="cls-2" d="M16.23,44.78c-1,0-1.8-.8-1.9-1.8v.2c0,1.1.9,2,2,2s2-.9,2-2,0-.1,0-.2c-.1,1-.9,1.8-1.9,1.8h-.2Z"/>
        <path class="cls-1" d="M16.23,38.78c-2.4,0-4.3,1.9-4.4,4.2.1,2.3,2,4.2,4.4,4.2s4.3-1.9,4.4-4.2c-.1-2.3-2-4.2-4.4-4.2ZM18.13,43.18c0,1.1-.9,2-2,2s-2-.9-2-2,0-.1,0-.2v-.2c0-1.1.9-2,2-2s2,.9,2,2,0,.1,0,.2v.2Z"/>
        <path class="cls-3" d="M16.23,37.18c-3.1,0-5.6,2.5-5.6,5.6s2.5,5.6,5.6,5.6,5.6-2.5,5.6-5.6-2.5-5.6-5.6-5.6ZM20.63,42.98c-.1,2.3-2,4.2-4.4,4.2s-4.3-1.9-4.4-4.2v-.2c0-2.4,2-4.4,4.4-4.4s4.4,2,4.4,4.4,0,.1,0,.2Z"/>
        <path class="cls-7" d="M16.23,40.78c-1.1,0-2,.9-2,2s0,.1,0,.2c.1,1,.9,1.8,1.9,1.8s1.8-.8,1.9-1.8v-.2c0-1.1-.9-2-2-2h.2ZM16.23,44.18c-.8,0-1.4-.6-1.4-1.4s.6-1.4,1.4-1.4,1.4.6,1.4,1.4-.6,1.4-1.4,1.4Z"/>
        <path class="cls-7" d="M16.23,42.58s-.2,0-.2.2.3.2.3,0,0-.2-.2-.2h.1Z"/>
        <path class="cls-4" d="M16.23,41.38c-.8,0-1.4.6-1.4,1.4s.6,1.4,1.4,1.4,1.4-.6,1.4-1.4-.6-1.4-1.4-1.4ZM16.03,42.78s0-.2.2-.2.2,0,.2.2-.3.2-.3,0h-.1Z"/>
      </g>
      <g>
        <circle class="cls-1" cx="33.67" cy="41.39" r="5.97"/>
        <path class="cls-2" d="M33.7,36.78c-1.8,0-3.4.8-4.5,2-.9,1.1-1.5,2.5-1.5,4,0,3.3,2.7,6,6,6s6-2.7,6-6-.6-2.9-1.5-4c-1.1-1.2-2.7-2-4.5-2ZM33.7,48.38c-3.1,0-5.6-2.5-5.6-5.6s2.5-5.6,5.6-5.6,5.6,2.5,5.6,5.6-2.5,5.6-5.6,5.6Z"/>
        <path class="cls-2" d="M33.7,44.78c-1,0-1.8-.8-1.9-1.8v.2c0,1.1.9,2,2,2s2-.9,2-2,0-.1,0-.2c-.1,1-.9,1.8-1.9,1.8h-.2Z"/>
        <path class="cls-1" d="M33.7,38.78c-2.4,0-4.3,1.9-4.4,4.2.1,2.3,2,4.2,4.4,4.2s4.3-1.9,4.4-4.2c-.1-2.3-2-4.2-4.4-4.2ZM35.6,43.18c0,1.1-.9,2-2,2s-2-.9-2-2,0-.1,0-.2v-.2c0-1.1.9-2,2-2s2,.9,2,2,0,.1,0,.2v.2Z"/>
        <path class="cls-3" d="M33.7,37.18c-3.1,0-5.6,2.5-5.6,5.6s2.5,5.6,5.6,5.6,5.6-2.5,5.6-5.6-2.5-5.6-5.6-5.6ZM38.1,42.98c-.1,2.3-2,4.2-4.4,4.2s-4.3-1.9-4.4-4.2v-.2c0-2.4,2-4.4,4.4-4.4s4.4,2,4.4,4.4,0,.1,0,.2Z"/>
        <path class="cls-7" d="M33.7,40.78c-1.1,0-2,.9-2,2s0,.1,0,.2c.1,1,.9,1.8,1.9,1.8s1.8-.8,1.9-1.8v-.2c0-1.1-.9-2-2-2h.2ZM33.7,44.18c-.8,0-1.4-.6-1.4-1.4s.6-1.4,1.4-1.4,1.4.6,1.4,1.4-.6,1.4-1.4,1.4Z"/>
        <path class="cls-7" d="M33.7,42.58s-.2,0-.2.2.3.2.3,0,0-.2-.2-.2h.1Z"/>
        <path class="cls-4" d="M33.7,41.38c-.8,0-1.4.6-1.4,1.4s.6,1.4,1.4,1.4,1.4-.6,1.4-1.4-.6-1.4-1.4-1.4ZM33.5,42.78s0-.2.2-.2.2,0,.2.2-.3.2-.3,0h-.1Z"/>
      </g>
      <g>
        <circle class="cls-1" cx="50.77" cy="41.39" r="5.97"/>
        <path class="cls-2" d="M50.8,36.78c-1.8,0-3.4.8-4.5,2-.9,1.1-1.5,2.5-1.5,4,0,3.3,2.7,6,6,6s6-2.7,6-6-.6-2.9-1.5-4c-1.1-1.2-2.7-2-4.5-2ZM50.8,48.38c-3.1,0-5.6-2.5-5.6-5.6s2.5-5.6,5.6-5.6,5.6,2.5,5.6,5.6-2.5,5.6-5.6,5.6Z"/>
        <path class="cls-2" d="M50.8,44.78c-1,0-1.8-.8-1.9-1.8v.2c0,1.1.9,2,2,2s2-.9,2-2,0-.1,0-.2c-.1,1-.9,1.8-1.9,1.8h-.2Z"/>
        <path class="cls-1" d="M50.8,38.78c-2.4,0-4.3,1.9-4.4,4.2.1,2.3,2,4.2,4.4,4.2s4.3-1.9,4.4-4.2c-.1-2.3-2-4.2-4.4-4.2ZM52.7,43.18c0,1.1-.9,2-2,2s-2-.9-2-2,0-.1,0-.2v-.2c0-1.1.9-2,2-2s2,.9,2,2,0,.1,0,.2v.2Z"/>
        <path class="cls-3" d="M50.8,37.18c-3.1,0-5.6,2.5-5.6,5.6s2.5,5.6,5.6,5.6,5.6-2.5,5.6-5.6-2.5-5.6-5.6-5.6ZM55.2,42.98c-.1,2.3-2,4.2-4.4,4.2s-4.3-1.9-4.4-4.2v-.2c0-2.4,2-4.4,4.4-4.4s4.4,2,4.4,4.4,0,.1,0,.2Z"/>
        <path class="cls-7" d="M50.8,40.78c-1.1,0-2,.9-2,2s0,.1,0,.2c.1,1,.9,1.8,1.9,1.8s1.8-.8,1.9-1.8v-.2c0-1.1-.9-2-2-2h.2ZM50.8,44.18c-.8,0-1.4-.6-1.4-1.4s.6-1.4,1.4-1.4,1.4.6,1.4,1.4-.6,1.4-1.4,1.4Z"/>
        <path class="cls-7" d="M50.8,42.58s-.2,0-.2.2.3.2.3,0,0-.2-.2-.2h.1Z"/>
        <path class="cls-4" d="M50.8,41.38c-.8,0-1.4.6-1.4,1.4s.6,1.4,1.4,1.4,1.4-.6,1.4-1.4-.6-1.4-1.4-1.4ZM50.6,42.78s0-.2.2-.2.2,0,.2.2-.3.2-.3,0h-.1Z"/>
      </g>
      <g>
        <circle class="cls-1" cx="68.52" cy="41.39" r="5.97"/>
        <path class="cls-2" d="M68.55,36.78c-1.8,0-3.4.8-4.5,2-.9,1.1-1.5,2.5-1.5,4,0,3.3,2.7,6,6,6s6-2.7,6-6-.6-2.9-1.5-4c-1.1-1.2-2.7-2-4.5-2ZM68.55,48.38c-3.1,0-5.6-2.5-5.6-5.6s2.5-5.6,5.6-5.6,5.6,2.5,5.6,5.6-2.5,5.6-5.6,5.6Z"/>
        <path class="cls-2" d="M68.55,44.78c-1,0-1.8-.8-1.9-1.8v.2c0,1.1.9,2,2,2s2-.9,2-2,0-.1,0-.2c-.1,1-.9,1.8-1.9,1.8h-.2Z"/>
        <path class="cls-1" d="M68.55,38.78c-2.4,0-4.3,1.9-4.4,4.2.1,2.3,2,4.2,4.4,4.2s4.3-1.9,4.4-4.2c-.1-2.3-2-4.2-4.4-4.2ZM70.45,43.18c0,1.1-.9,2-2,2s-2-.9-2-2,0-.1,0-.2v-.2c0-1.1.9-2,2-2s2,.9,2,2,0,.1,0,.2v.2Z"/>
        <path class="cls-3" d="M68.55,37.18c-3.1,0-5.6,2.5-5.6,5.6s2.5,5.6,5.6,5.6,5.6-2.5,5.6-5.6-2.5-5.6-5.6-5.6ZM72.95,42.98c-.1,2.3-2,4.2-4.4,4.2s-4.3-1.9-4.4-4.2v-.2c0-2.4,2-4.4,4.4-4.4s4.4,2,4.4,4.4,0,.1,0,.2Z"/>
        <path class="cls-7" d="M68.55,40.78c-1.1,0-2,.9-2,2s0,.1,0,.2c.1,1,.9,1.8,1.9,1.8s1.8-.8,1.9-1.8v-.2c0-1.1-.9-2-2-2h.2ZM68.55,44.18c-.8,0-1.4-.6-1.4-1.4s.6-1.4,1.4-1.4,1.4.6,1.4,1.4-.6,1.4-1.4,1.4Z"/>
        <path class="cls-7" d="M68.55,42.58s-.2,0-.2.2.3.2.3,0,0-.2-.2-.2h.1Z"/>
        <path class="cls-4" d="M68.55,41.38c-.8,0-1.4.6-1.4,1.4s.6,1.4,1.4,1.4,1.4-.6,1.4-1.4-.6-1.4-1.4-1.4ZM68.35,42.78s0-.2.2-.2.2,0,.2.2-.3.2-.3,0h-.1Z"/>
      </g>
      <g>
        <circle class="cls-1" cx="86.39" cy="41.39" r="5.97"/>
        <path class="cls-2" d="M86.42,36.78c-1.8,0-3.4.8-4.5,2-.9,1.1-1.5,2.5-1.5,4,0,3.3,2.7,6,6,6s6-2.7,6-6-.6-2.9-1.5-4c-1.1-1.2-2.7-2-4.5-2ZM86.42,48.38c-3.1,0-5.6-2.5-5.6-5.6s2.5-5.6,5.6-5.6,5.6,2.5,5.6,5.6-2.5,5.6-5.6,5.6Z"/>
        <path class="cls-2" d="M86.42,44.78c-1,0-1.8-.8-1.9-1.8v.2c0,1.1.9,2,2,2s2-.9,2-2,0-.1,0-.2c-.1,1-.9,1.8-1.9,1.8h-.2Z"/>
        <path class="cls-1" d="M86.42,38.78c-2.4,0-4.3,1.9-4.4,4.2.1,2.3,2,4.2,4.4,4.2s4.3-1.9,4.4-4.2c-.1-2.3-2-4.2-4.4-4.2ZM88.32,43.18c0,1.1-.9,2-2,2s-2-.9-2-2,0-.1,0-.2v-.2c0-1.1.9-2,2-2s2,.9,2,2,0,.1,0,.2v.2Z"/>
        <path class="cls-3" d="M86.42,37.18c-3.1,0-5.6,2.5-5.6,5.6s2.5,5.6,5.6,5.6,5.6-2.5,5.6-5.6-2.5-5.6-5.6-5.6ZM90.82,42.98c-.1,2.3-2,4.2-4.4,4.2s-4.3-1.9-4.4-4.2v-.2c0-2.4,2-4.4,4.4-4.4s4.4,2,4.4,4.4,0,.1,0,.2Z"/>
        <path class="cls-7" d="M86.42,40.78c-1.1,0-2,.9-2,2s0,.1,0,.2c.1,1,.9,1.8,1.9,1.8s1.8-.8,1.9-1.8v-.2c0-1.1-.9-2-2-2h.2ZM86.42,44.18c-.8,0-1.4-.6-1.4-1.4s.6-1.4,1.4-1.4,1.4.6,1.4,1.4-.6,1.4-1.4,1.4Z"/>
        <path class="cls-7" d="M86.42,42.58s-.2,0-.2.2.3.2.3,0,0-.2-.2-.2h.1Z"/>
        <path class="cls-4" d="M86.42,41.38c-.8,0-1.4.6-1.4,1.4s.6,1.4,1.4,1.4,1.4-.6,1.4-1.4-.6-1.4-1.4-1.4ZM86.22,42.78s0-.2.2-.2.2,0,.2.2-.3.2-.3,0h-.1Z"/>
      </g>
    </g>
  </g>
</svg>