<?xml version="1.0" encoding="UTF-8"?>
<svg id="Layer_2" overflow="visible" data-name="Layer 2" xmlns="http://www.w3.org/2000/svg" viewBox="0 0 145.45 47.69">
  <defs>
    <style>
      .cls-1 {
        fill: none;
      }

      .cls-2 {
        fill: #cbccce;
      }

      .cls-3 {
        fill: #5f4011;
      }

      .cls-4 {
        fill: #706f8b;
      }

      .cls-5 {
        fill: #231f20;
      }

      .cls-6 {
        fill: #606078;
      }

      .cls-7 {
        fill: #fbaa32;
      }

      .cls-8 {
        fill: #f16457;
      }

      .cls-9 {
        fill: #ed1c24;
      }

      .cls-10 {
        fill: #6d8fb1;
      }

      .cls-11 {
        fill: #9c0a0e;
      }

      .cls-12 {
        fill: #845b24;
      }

      .cls-13 {
        fill: #9593b8;
      }

      .cls-14 {
        fill: #e8ae2c;
      }

      .cls-15 {
        fill: #898aa2;
      }

      .cls-16 {
        fill: #cc8d2a;
      }

      .cls-17 {
        fill: #131313;
      }

      .cls-18 {
        fill: #4c4c61;
      }

      .cls-19 {
        fill: #febd30;
      }

      .cls-20 {
        fill: #b27c23;
      }

      .cls-21 {
        fill: #c2c4c6;
      }

      .cls-22 {
        fill: #d7d9da;
      }

      .cls-23 {
        fill: #ffdc89;
      }

      .cls-24 {
        fill: #909294;
      }
    </style>
  </defs>
  <g id="Layer_1-2" data-name="Layer 1">
    <g>
      <g>
        <path class="cls-5" d="M22.77,18.16h5.81c.86,0,1.47.84,1.2,1.65l-7.14,21.97c-.17.52-.65.87-1.2.87H1.39l-1.39-3.46,21.9-20.68c.24-.23.55-.35.87-.35Z"/>
        <path class="cls-8" d="M17.83,23.45l4.76-4.84h1.26s-3.8,4.53-3.8,4.53c-.16.2-.41.31-.66.31h-1.55Z"/>
        <path class="cls-9" d="M19.52,25.18c0-.6-.49-1.09-1.09-1.09h-1.11c-.11,0-.22.04-.3.12L1.58,39.3h17.94v-14.12Z"/>
        <path class="cls-11" d="M1.99,41.4h16.45c.6,0,1.09-.59,1.09-1.31v-.78H1.58l-.19.23.6,1.87Z"/>
        <polygon points="4.63 38.43 6.58 38.43 17.11 25.76 16.31 25.76 4.63 38.43"/>
        <path d="M8.42,38.43h2.67c1.52-3.06,6.86-11.18,7.77-12.66h-1.19l-9.25,12.66Z"/>
        <polygon points="12.71 38.35 15.12 38.35 18.53 30.52 18.53 28.05 12.71 38.35"/>
      </g>
      <g>
        <path class="cls-5" d="M122.68,18.16h-5.81c-.86,0-1.47.84-1.2,1.65l7.14,21.97c.17.52.65.87,1.2.87h20.05s1.39-3.46,1.39-3.46l-21.9-20.68c-.24-.23-.55-.35-.87-.35Z"/>
        <path class="cls-8" d="M127.61,23.45l-4.76-4.84h-1.26s3.8,4.53,3.8,4.53c.16.2.41.31.66.31h1.55Z"/>
        <path class="cls-9" d="M125.92,25.18c0-.6.49-1.09,1.09-1.09h1.11c.11,0,.22.04.3.12l15.44,15.09h-17.94v-14.12Z"/>
        <path class="cls-11" d="M143.46,41.4h-16.45c-.6,0-1.09-.59-1.09-1.31v-.78h17.94s.19.23.19.23l-.6,1.87Z"/>
        <polygon points="140.82 38.43 138.87 38.43 128.34 25.76 129.14 25.76 140.82 38.43"/>
        <path d="M137.02,38.43h-2.67c-1.52-3.06-6.86-11.18-7.77-12.66h1.19s9.25,12.66,9.25,12.66Z"/>
        <polygon points="132.74 38.35 130.33 38.35 126.92 30.52 126.92 28.05 132.74 38.35"/>
      </g>
      <g>
        <g>
          <path class="cls-5" d="M29.8,41.6h-.85c-2.34,0-4.39-1.36-5.36-3.4h-.34c-1.38,0-2.5-1.12-2.5-2.5v-3.2c0-.67.66-2.71.66-2.71l1.64-3.76v-3.43c0-.57.04-1.14.13-1.7.16-1.05.48-2.08.95-3.06.21-.44.44-.86.7-1.26l5.41-10.01.05-.07c.04-.05.36-.54.94-1.19.34-.38.9-.96,1.64-1.54.28-.22.57-.44.89-.65,1.65-1.08,3.4-1.62,5.2-1.62h17.36l.4-1.5h11.84v1.5h7.7V.01h1.9s10.34-.01,10.34-.01l.3,1.5h16.36c2.69,0,5.02.68,6.92,2.01.26.18.51.37.75.58.98.83,1.86,1.87,2.6,3.09.19.31.37.63.54.96.34.66.66,1.38.95,2.15l1.41,4.1c.35,1.02.84,1.98,1.36,2.92,0,0,0,0,0,.01.14.26.28.53.4.8.25.54.45,1.12.6,1.7.08.3.14.59.19.9.1.62.16,1.24.16,1.87v3.35l1.71,3.81s.69,2.06.69,2.74v3.2c0,1.38-1.12,2.5-2.5,2.5h-.54c-.97,2.04-3.01,3.4-5.36,3.4h-.75"/>
          <g>
            <path class="cls-1" d="M33.15,34.75h8.8c-1.1-1.14-2.65-1.9-4.4-1.9s-3.3.76-4.4,1.9Z"/>
            <path class="cls-1" d="M28.92,12.46c.3-.2.62-.38.94-.55-.32.17-.64.34-.94.55Z"/>
            <path class="cls-1" d="M54.55,32.85h-.7c-1.45.19-2.71.86-3.69,1.9h8.79c-.99-1.05-2.36-1.75-3.9-1.9h-.5Z"/>
            <polygon class="cls-1" points="31.79 11.17 31.79 11.17 31.79 11.17 31.79 11.17"/>
            <path class="cls-1" d="M30.71,11.53c-.15.06-.3.11-.45.18.15-.07.3-.12.45-.18Z"/>
            <polygon class="cls-1" points="53.85 9.15 55.38 2.75 55.07 4.03 53.85 9.15"/>
            <path class="cls-1" d="M34.05,10.85c-.4,0-.8.03-1.18.09.39-.05.78-.09,1.18-.09Z"/>
            <path class="cls-1" d="M115.15,12.47c-.05-.03-.1-.07-.15-.1.05.03.1.07.15.1Z"/>
            <path class="cls-1" d="M111.28,10.95c-.09-.01-.17-.03-.26-.04.09,0,.17.03.26.04Z"/>
            <path class="cls-1" d="M113.12,11.41c-.06-.02-.12-.04-.17-.06.06.02.12.04.17.06Z"/>
            <path class="cls-1" d="M106.55,32.85c-1.75,0-3.3.76-4.4,1.9h8.8c-1.1-1.14-2.65-1.9-4.4-1.9Z"/>
            <path class="cls-1" d="M110.05,12.85c2.9,0,5.4,1.4,7.1,3.5-1.6-2.1-4.2-3.5-7.1-3.5Z"/>
            <path class="cls-1" d="M112.23,11.13c-.08-.02-.16-.04-.25-.06.08.02.17.04.25.06Z"/>
            <path class="cls-1" d="M90.05,32.85h-1c-1.72,0-3.27.73-4.36,1.9h8.77c-.6-.75-1.45-1.31-2.41-1.6-.4-.1-.7-.2-1-.2v-.1Z"/>
            <path class="cls-23" d="M34.05,12.85h19.8v-1.7l2-8.4h-.48l-1.52,6.4v1.7h-19.8c-.4,0-.79.04-1.18.09-.36.05-.72.13-1.08.22,0,0,0,0,0,0-.37.1-.73.22-1.08.36-.15.06-.3.11-.45.18-.14.06-.27.13-.41.2-.32.17-.64.35-.94.55l-2.37,4.39c1.6-2.4,4.4-4,7.5-4Z"/>
            <rect class="cls-22" x="67.95" y="10.85" width="8.8" height="2"/>
            <path class="cls-23" d="M110.05,12.85c2.9,0,5.5,1.4,7.1,3.5l-1.09-3.17c-.29-.26-.59-.49-.91-.72-.05-.03-.1-.07-.15-.1-.33-.22-.67-.42-1.03-.6-.27-.13-.56-.25-.85-.36-.06-.02-.12-.04-.17-.06-.23-.08-.47-.15-.72-.21-.08-.02-.16-.04-.25-.06-.23-.05-.46-.09-.7-.13-.09-.01-.17-.03-.26-.04-.32-.04-.64-.06-.97-.06h-19v-1.7l-1.17-5.19-.27-1.21h-.45l1.9,8.4v1.7h19Z"/>
            <path class="cls-23" d="M79.15,11.15h10.9l-2.2-9.9h-10.2l.4,9.9h1.1ZM87.06,2.04l1.56,7.93h-9.65l-.58-7.93h8.67Z"/>
            <path class="cls-23" d="M30.26,11.71c.15-.07.3-.12.45-.18.35-.14.71-.26,1.08-.36,0,0,0,0,0,0l1.64-3.04s2.7-4.1,7-4.1h14.64l.3-1.28h-16.42c-4.3,0-7,4.1-7,4.1l-3.03,5.61c.3-.21.61-.38.94-.55.13-.07.27-.14.41-.2Z"/>
            <path class="cls-19" d="M40.43,4.03c-4.3,0-7,4.1-7,4.1l-1.64,3.04s0,0,0,0c.35-.09.71-.17,1.08-.22.39-.06.78-.09,1.18-.09h19.8v-1.7l1.22-5.12h-14.64Z"/>
            <polygon class="cls-2" points="76.56 4.03 68.41 4.03 67.95 10.85 76.75 10.85 76.56 4.03"/>
            <polygon class="cls-22" points="76.45 2.75 68.58 2.75 68.41 4.03 76.56 4.03 76.45 2.75"/>
            <path class="cls-23" d="M103.96,3.96c4.3,0,7.8,1.9,9.9,7.5l.1.3c.36.18.7.38,1.03.6.05.03.1.07.15.1.32.22.63.46.91.72l-1.01-2.93c-2.1-5.6-5.6-7.5-9.9-7.5h-15.55l.27,1.21h14.08Z"/>
            <path class="cls-19" d="M113.86,11.46c-2.1-5.6-5.6-7.5-9.9-7.5h-14.08l1.17,5.19v1.7h19c.33,0,.65.02.97.06.09,0,.17.03.26.04.24.03.47.07.7.13.08.02.17.04.25.06.24.06.48.13.72.21.06.02.12.04.17.06.29.11.57.23.85.36l-.1-.3Z"/>
            <path class="cls-23" d="M56.05,11.15h11l.5-9.9h-10.3l-2.2,9.9h1ZM57.81,2.04h8.67l-.58,7.93h-9.65l1.56-7.93Z"/>
            <path class="cls-12" d="M98.05,38.85h5.5c0-1.33.49-2.58,1.23-3.61h-7.96c.74,1.04,1.23,2.28,1.23,3.61Z"/>
            <path class="cls-14" d="M56.05,11.15h-1v21.7c1.54.15,2.91.85,3.9,1.9h1.27c-.98-1.36-2.44-2.36-4.16-2.75V12.15h10v22.36c-.06.08-.1.16-.16.24h1.16V11.15h-11Z"/>
            <path class="cls-16" d="M66.05,12.15h-10v19.85c1.72.39,3.18,1.39,4.16,2.75h5.68c.06-.08.1-.17.16-.24V12.15Z"/>
            <path class="cls-12" d="M65.57,35.24h-6.24c.76,1,1.22,2.23,1.22,3.61h5c0-1.33.49-2.58,1.23-3.61h-1.21Z"/>
            <path class="cls-12" d="M25.05,35.45c.3,1.9,1.9,3.4,3.9,3.4h2.5c0-1.33.49-2.58,1.23-3.61h-7.63v.21Z"/>
            <path class="cls-12" d="M41.55,38.85h5c0-1.33.49-2.58,1.23-3.61h-7.46c.74,1.04,1.23,2.28,1.23,3.61Z"/>
            <path class="cls-12" d="M112.55,38.85h2.5c2,0,3.6-1.5,3.9-3.4v-.21h-7.63c.74,1.04,1.23,2.28,1.23,3.61Z"/>
            <path class="cls-7" d="M110.05,12.85h-19v20.3c.96.29,1.81.85,2.41,1.6h25.59v-12.9c0-2.1-.7-4-1.9-5.5-1.7-2.1-4.2-3.5-7.1-3.5ZM118.05,33.85h-6.58c-1.33-1.28-3.1-2-4.92-2s-3.59.72-4.92,2h-7.61c-.54-.58-1.21-1.06-1.97-1.4V13.85h18c2.44,0,4.69,1.11,6.32,3.13,1.1,1.37,1.68,3.06,1.68,4.87v12Z"/>
            <path class="cls-16" d="M110.05,13.85h-18v18.6c.76.33,1.43.81,1.97,1.4h24.03v-12c0-1.81-.58-3.5-1.68-4.87-1.63-2.02-3.88-3.13-6.32-3.13Z"/>
            <path class="cls-21" d="M76.75,12.85h-8.8v21.1c1-.7,2.2-1.2,3.5-1.2s3.4.8,4.5,2h.8V12.85ZM75.75,33.26c-1.34-.96-3.09-1.5-4.3-1.5-.83,0-1.68.17-2.5.51V13.85h6.8v19.41Z"/>
            <path class="cls-24" d="M68.95,32.26c.82-.34,1.67-.51,2.5-.51,1.21,0,2.96.55,4.3,1.5V13.85h-6.8v18.41Z"/>
            <path class="cls-7" d="M50.16,34.75c.99-1.04,2.24-1.71,3.69-1.9V12.85h-19.8c-3.1,0-5.9,1.6-7.5,4-.9,1.4-1.5,3.1-1.5,5v12.9h25.11ZM26.05,21.85c0-1.55.46-3.09,1.34-4.46,1.45-2.18,4.01-3.54,6.66-3.54h18.8v18.18c-1.22.31-2.31.93-3.22,1.82h-7.16c-1.33-1.28-3.1-2-4.92-2s-3.59.72-4.92,2h-6.58v-12Z"/>
            <path class="cls-16" d="M49.63,33.85c.91-.89,2.01-1.51,3.22-1.82V13.85h-18.8c-2.65,0-5.21,1.36-6.66,3.54-.88,1.37-1.34,2.91-1.34,4.46v12h23.58Z"/>
            <path class="cls-14" d="M79.05,12.15h10v19.7c-2.33,0-4.39,1.15-5.66,2.9h1.3c1.1-1.17,2.65-1.9,4.36-1.9h1V11.15h-12v23.6h1V12.15Z"/>
            <path class="cls-12" d="M83.07,35.24h-6.74c.74,1.04,1.23,2.28,1.23,3.61h5.5c0-1.36.46-2.61,1.23-3.61h-1.21Z"/>
            <path class="cls-16" d="M89.05,34.75V12.15h-10v22.6h10Z"/>
            <polygon class="cls-19" points="66.49 2.04 57.81 2.04 56.25 9.96 65.9 9.96 66.49 2.04"/>
            <polygon class="cls-19" points="88.62 9.96 87.06 2.04 78.39 2.04 78.97 9.96 88.62 9.96"/>
            <path class="cls-15" d="M21.96,31.72c.01-.28.21-.47.5-.47h1.4v-4.32l-1.65,3.76c-.1.24-.22.35-.24,1.03Z"/>
            <path class="cls-4" d="M21.96,32.21s0,.02,0,.03v3.2c0,.3.2.5.5.5h1.4v-4.2h-1.4c-.29,0-.48.19-.5.47Z"/>
            <path class="cls-15" d="M121.76,31.72c-.02-.68-.14-.79-.24-1.03l-1.65-3.76v4.32h1.4c.29,0,.48.19.5.47Z"/>
            <path class="cls-4" d="M121.76,32.21c-.01-.28-.21-.47-.5-.47h-1.4v4.2h1.4c.3,0,.5-.2.5-.5v-3.2s0-.02,0-.03Z"/>
          </g>
          <rect class="cls-20" x="26.05" y="23.85" width="26.8" height="3.45"/>
          <rect class="cls-20" x="92.21" y="23.85" width="25.84" height="3.45"/>
          <rect class="cls-7" x="25.58" y="25.76" width="27.75" height="3.45"/>
          <rect class="cls-7" x="91.75" y="25.76" width="26.3" height="3.45"/>
          <rect class="cls-7" x="25.58" y="22.7" width="27.75" height="1.13"/>
          <rect class="cls-7" x="91.75" y="22.7" width="26.3" height="1.13"/>
          <g>
            <polygon class="cls-10" points="52.85 28.21 52.85 24.76 48.18 24.76 51.63 28.21 52.85 28.21"/>
            <polygon class="cls-10" points="26.05 28.21 28.89 28.21 26.05 25.37 26.05 28.21"/>
            <polygon class="cls-10" points="43.3 24.76 39.25 24.76 42.7 28.21 46.75 28.21 43.3 24.76"/>
            <polygon class="cls-10" points="30.32 24.76 33.77 28.21 37.82 28.21 34.37 24.76 30.32 24.76"/>
            <polygon points="26.05 24.76 26.05 25.37 28.89 28.21 33.77 28.21 30.32 24.76 26.05 24.76"/>
            <polygon points="34.37 24.76 37.82 28.21 42.7 28.21 39.25 24.76 34.37 24.76"/>
            <polygon points="51.63 28.21 48.18 24.76 43.3 24.76 46.75 28.21 51.63 28.21"/>
          </g>
          <g>
            <polygon class="cls-10" points="108.84 24.76 105.38 28.21 108.71 28.21 112.16 24.76 108.84 24.76"/>
            <polygon class="cls-10" points="92.21 24.76 92.21 28.21 92.31 28.21 95.76 24.76 92.21 24.76"/>
            <polygon class="cls-10" points="100.63 24.76 97.18 28.21 100.51 28.21 103.96 24.76 100.63 24.76"/>
            <polygon class="cls-10" points="113.58 28.21 118.05 28.21 118.05 24.76 117.04 24.76 113.58 28.21"/>
            <polygon points="112.16 24.76 108.71 28.21 113.58 28.21 117.04 24.76 112.16 24.76"/>
            <polygon points="103.96 24.76 100.51 28.21 105.38 28.21 108.84 24.76 103.96 24.76"/>
            <polygon points="95.76 24.76 92.31 28.21 97.18 28.21 100.63 24.76 95.76 24.76"/>
          </g>
          <circle class="cls-5" cx="72.49" cy="38.94" r="7.37"/>
          <circle class="cls-5" cx="53.85" cy="38.94" r="7.37"/>
          <circle class="cls-5" cx="53.48" cy="38.94" r="7.37"/>
          <circle class="cls-5" cx="34.84" cy="38.94" r="7.37"/>
          <circle class="cls-5" cx="91.12" cy="38.94" r="7.37"/>
          <circle class="cls-5" cx="72.49" cy="38.94" r="7.37"/>
          <circle class="cls-5" cx="109.95" cy="38.94" r="7.37"/>
          <circle class="cls-5" cx="91.32" cy="38.94" r="7.37"/>
          <g>
            <path class="cls-3" d="M53.48,32.56c-3,0-5.52,2.09-6.19,4.88h12.38c-.67-2.8-3.19-4.88-6.19-4.88Z"/>
            <path class="cls-3" d="M34.84,32.56c-3,0-5.52,2.09-6.19,4.88h12.38c-.67-2.8-3.19-4.88-6.19-4.88Z"/>
            <path class="cls-3" d="M72.49,32.56c-3,0-5.52,2.09-6.19,4.88h12.38c-.67-2.8-3.19-4.88-6.19-4.88Z"/>
            <path class="cls-3" d="M109.95,32.56c-3,0-5.52,2.09-6.19,4.88h12.38c-.67-2.8-3.19-4.88-6.19-4.88Z"/>
            <path class="cls-3" d="M91.32,32.56c-3,0-5.52,2.09-6.19,4.88h12.38c-.67-2.8-3.19-4.88-6.19-4.88Z"/>
          </g>
          <g>
            <path class="cls-5" d="M79.61,39.57c-.13-3.43-2.95-6.18-6.41-6.18s-6.42,2.88-6.42,6.42c0,.19.01.37.03.55-.02.19-.03.38-.03.58,0,3.56,2.89,6.45,6.45,6.45s6.45-2.89,6.45-6.45c0-.53-.02-.97-.06-1.36Z"/>
            <circle class="cls-5" cx="72.77" cy="40.39" r="5.97"/>
            <path class="cls-13" d="M72.77,34.43c-.96,0-1.86.23-2.67.64v10.67c.8.4,1.71.64,2.67.64,1.46,0,2.8-.53,3.83-1.4v-9.14c-1.04-.87-2.37-1.4-3.83-1.4Z"/>
            <circle class="cls-5" cx="72.75" cy="41.73" r="5.97"/>
            <path class="cls-6" d="M72.75,36.13c-3.1,0-5.6,2.5-5.6,5.6s2.5,5.6,5.6,5.6,5.6-2.5,5.6-5.6-2.5-5.6-5.6-5.6ZM77.15,41.93c-.1,2.3-2,4.2-4.4,4.2s-4.3-1.9-4.4-4.2v-.2c0-2.4,2-4.4,4.4-4.4s4.4,2,4.4,4.4,0,.1,0,.2Z"/>
            <path class="cls-4" d="M72.75,38.38c-1.85,0-3.34,1.5-3.34,3.34,0,.16.03.31.05.46.23-1.63,1.61-2.88,3.3-2.88s3.07,1.26,3.3,2.88c.02-.15.05-.3.05-.46,0-1.85-1.5-3.34-3.34-3.34Z"/>
            <path class="cls-13" d="M72.75,39.3c-1.69,0-3.07,1.26-3.3,2.88.23,1.63,1.61,2.88,3.3,2.88s3.07-1.26,3.3-2.88c-.23-1.63-1.61-2.88-3.3-2.88Z"/>
            <path class="cls-5" d="M72.9,43.05c-1,0-1.8-.8-1.9-1.8v.2c0,1.1.9,2,2,2s2-.9,2-2,0-.1,0-.2c-.1,1-.9,1.8-1.9,1.8h-.2Z"/>
            <path class="cls-17" d="M72.9,41.59s-.2,0-.2.2.3.2.3,0,0-.2-.2-.2h.1Z"/>
            <path class="cls-16" d="M72.9,39.39c-.8,0-1.4.6-1.4,1.4s.6,1.4,1.4,1.4,1.4-.6,1.4-1.4-.6-1.4-1.4-1.4ZM72.7,40.79s0-.2.2-.2.2,0,.2.2-.3.2-.3,0h-.1Z"/>
            <path class="cls-7" d="M72.9,39.85c-.8,0-1.4.6-1.4,1.4s.6,1.4,1.4,1.4,1.4-.6,1.4-1.4-.6-1.4-1.4-1.4ZM72.7,41.25s0-.2.2-.2.2,0,.2.2-.3.2-.3,0h-.1Z"/>
          </g>
          <g>
            <path class="cls-5" d="M98.04,39.57c-.13-3.43-2.95-6.18-6.41-6.18s-6.42,2.88-6.42,6.42c0,.19.01.37.03.55-.02.19-.03.38-.03.58,0,3.56,2.89,6.45,6.45,6.45s6.45-2.89,6.45-6.45c0-.53-.02-.97-.06-1.36Z"/>
            <circle class="cls-5" cx="91.68" cy="40.39" r="5.97"/>
            <path class="cls-13" d="M96.32,43.97l-3.12-9.3c-.53-.15-1.08-.24-1.65-.24-1.53,0-2.91.58-3.97,1.52l1.65,9.95c.71.3,1.5.47,2.32.47,1.95,0,3.68-.94,4.77-2.39Z"/>
            <circle class="cls-5" cx="92.33" cy="41.73" r="5.97"/>
            <path class="cls-6" d="M92.33,36.13c-3.1,0-5.6,2.5-5.6,5.6s2.5,5.6,5.6,5.6,5.6-2.5,5.6-5.6-2.5-5.6-5.6-5.6ZM96.73,41.93c-.1,2.3-2,4.2-4.4,4.2s-4.3-1.9-4.4-4.2v-.2c0-2.4,2-4.4,4.4-4.4s4.4,2,4.4,4.4,0,.1,0,.2Z"/>
            <path class="cls-4" d="M92.33,38.38c-1.85,0-3.34,1.5-3.34,3.34,0,.16.03.31.05.46.23-1.63,1.61-2.88,3.3-2.88s3.07,1.26,3.3,2.88c.02-.15.05-.3.05-.46,0-1.85-1.5-3.34-3.34-3.34Z"/>
            <path class="cls-13" d="M92.33,39.3c-1.69,0-3.07,1.26-3.3,2.88.23,1.63,1.61,2.88,3.3,2.88s3.07-1.26,3.3-2.88c-.23-1.63-1.61-2.88-3.3-2.88Z"/>
            <path class="cls-5" d="M92.63,43.05c-1,0-1.8-.8-1.9-1.8v.2c0,1.1.9,2,2,2s2-.9,2-2,0-.1,0-.2c-.1,1-.9,1.8-1.9,1.8h-.2Z"/>
            <path class="cls-17" d="M92.63,41.59s-.2,0-.2.2.3.2.3,0,0-.2-.2-.2h.1Z"/>
            <path class="cls-16" d="M92.63,39.39c-.8,0-1.4.6-1.4,1.4s.6,1.4,1.4,1.4,1.4-.6,1.4-1.4-.6-1.4-1.4-1.4ZM92.43,40.79s0-.2.2-.2.2,0,.2.2-.3.2-.3,0h-.1Z"/>
            <path class="cls-7" d="M92.63,39.85c-.8,0-1.4.6-1.4,1.4s.6,1.4,1.4,1.4,1.4-.6,1.4-1.4-.6-1.4-1.4-1.4ZM92.43,41.25s0-.2.2-.2.2,0,.2.2-.3.2-.3,0h-.1Z"/>
          </g>
          <g>
            <path class="cls-5" d="M118.14,39.57c-.13-3.43-2.95-6.18-6.41-6.18s-6.42,2.88-6.42,6.42c0,.19.01.37.03.55-.02.19-.03.38-.03.58,0,3.56,2.89,6.45,6.45,6.45s6.45-2.89,6.45-6.45c0-.53-.02-.97-.06-1.36Z"/>
            <circle class="cls-5" cx="112" cy="40.39" r="5.97"/>
            <path class="cls-13" d="M117.79,42.25l-4.34-7.68c-.43-.1-.87-.15-1.32-.15-1.46,0-2.79.52-3.82,1.39l4.08,10.53c2.53-.11,4.65-1.79,5.41-4.09Z"/>
            <circle class="cls-5" cx="112.93" cy="41.73" r="5.97"/>
            <path class="cls-6" d="M112.93,36.13c-3.1,0-5.6,2.5-5.6,5.6s2.5,5.6,5.6,5.6,5.6-2.5,5.6-5.6-2.5-5.6-5.6-5.6ZM117.33,41.93c-.1,2.3-2,4.2-4.4,4.2s-4.3-1.9-4.4-4.2v-.2c0-2.4,2-4.4,4.4-4.4s4.4,2,4.4,4.4,0,.1,0,.2Z"/>
            <path class="cls-4" d="M113.93,39.3c.63,0,1.22.19,1.72.49-.61-.85-1.6-1.41-2.72-1.41-1.85,0-3.34,1.5-3.34,3.34,0,1.21.65,2.27,1.62,2.85-.39-.55-.62-1.21-.62-1.93,0-1.85,1.5-3.34,3.34-3.34Z"/>
            <path class="cls-13" d="M116.27,41.73c0-.72-.23-1.38-.62-1.93-.5-.31-1.09-.49-1.72-.49-1.85,0-3.34,1.5-3.34,3.34,0,.72.23,1.38.62,1.93.5.31,1.09.49,1.72.49,1.85,0,3.34-1.5,3.34-3.34Z"/>
            <path class="cls-5" d="M112.83,43.05c-1,0-1.8-.8-1.9-1.8v.2c0,1.1.9,2,2,2s2-.9,2-2,0-.1,0-.2c-.1,1-.9,1.8-1.9,1.8h-.2Z"/>
            <path class="cls-17" d="M112.83,41.59s-.2,0-.2.2.3.2.3,0,0-.2-.2-.2h.1Z"/>
            <path class="cls-16" d="M112.83,39.39c-.8,0-1.4.6-1.4,1.4s.6,1.4,1.4,1.4,1.4-.6,1.4-1.4-.6-1.4-1.4-1.4ZM112.63,40.79s0-.2.2-.2.2,0,.2.2-.3.2-.3,0h-.1Z"/>
            <path class="cls-7" d="M112.83,39.85c-.8,0-1.4.6-1.4,1.4s.6,1.4,1.4,1.4,1.4-.6,1.4-1.4-.6-1.4-1.4-1.4ZM112.63,41.25s0-.2.2-.2.2,0,.2.2-.3.2-.3,0h-.1Z"/>
          </g>
          <g>
            <path class="cls-5" d="M59.24,39.57c-.13-3.43-2.95-6.18-6.41-6.18s-6.42,2.88-6.42,6.42c0,.19.01.37.03.55-.02.19-.03.38-.03.58,0,3.56,2.89,6.45,6.45,6.45s6.45-2.89,6.45-6.45c0-.53-.02-.97-.06-1.36Z"/>
            <circle class="cls-5" cx="52.77" cy="40.39" r="5.97"/>
            <path class="cls-13" d="M52.69,34.43c-.85,0-1.66.18-2.39.5l-2.81,8.39c1.02,1.82,2.97,3.05,5.2,3.05.57,0,1.11-.08,1.63-.23l1.76-10.64c-.96-.67-2.13-1.06-3.39-1.06Z"/>
            <circle class="cls-5" cx="52.52" cy="41.73" r="5.97"/>
            <path class="cls-6" d="M52.52,36.13c-3.1,0-5.6,2.5-5.6,5.6s2.5,5.6,5.6,5.6,5.6-2.5,5.6-5.6-2.5-5.6-5.6-5.6ZM56.92,41.93c-.1,2.3-2,4.2-4.4,4.2s-4.3-1.9-4.4-4.2v-.2c0-2.4,2-4.4,4.4-4.4s4.4,2,4.4,4.4,0,.1,0,.2Z"/>
            <path class="cls-4" d="M52.52,38.38c-1.85,0-3.34,1.5-3.34,3.34,0,.16.03.31.05.46.23-1.63,1.61-2.88,3.3-2.88s3.07,1.26,3.3,2.88c.02-.15.05-.3.05-.46,0-1.85-1.5-3.34-3.34-3.34Z"/>
            <path class="cls-13" d="M52.52,39.3c-1.69,0-3.07,1.26-3.3,2.88.23,1.63,1.61,2.88,3.3,2.88s3.07-1.26,3.3-2.88c-.23-1.63-1.61-2.88-3.3-2.88Z"/>
            <path class="cls-5" d="M52.42,43.05c-1,0-1.8-.8-1.9-1.8v.2c0,1.1.9,2,2,2s2-.9,2-2,0-.1,0-.2c-.1,1-.9,1.8-1.9,1.8h-.2Z"/>
            <path class="cls-17" d="M52.42,41.59s-.2,0-.2.2.3.2.3,0,0-.2-.2-.2h.1Z"/>
            <path class="cls-16" d="M52.42,39.39c-.8,0-1.4.6-1.4,1.4s.6,1.4,1.4,1.4,1.4-.6,1.4-1.4-.6-1.4-1.4-1.4ZM52.22,40.79s0-.2.2-.2.2,0,.2.2-.3.2-.3,0h-.1Z"/>
            <path class="cls-7" d="M52.42,39.85c-.8,0-1.4.6-1.4,1.4s.6,1.4,1.4,1.4,1.4-.6,1.4-1.4-.6-1.4-1.4-1.4ZM52.22,41.25s0-.2.2-.2.2,0,.2.2-.3.2-.3,0h-.1Z"/>
          </g>
          <g>
            <path class="cls-5" d="M40.19,39.57c-.13-3.43-2.95-6.18-6.41-6.18s-6.42,2.88-6.42,6.42c0,.19.01.37.03.55-.02.19-.03.38-.03.58,0,3.56,2.89,6.45,6.45,6.45s6.45-2.89,6.45-6.45c0-.53-.02-.97-.06-1.36Z"/>
            <circle class="cls-5" cx="33.33" cy="40.39" r="5.97"/>
            <path class="cls-13" d="M32.35,34.55l-4.41,7.79c.79,2.28,2.92,3.93,5.46,4.01l4.06-10.48c-1.04-.9-2.4-1.44-3.89-1.44-.42,0-.83.04-1.23.13Z"/>
            <circle class="cls-5" cx="33.33" cy="41.73" r="5.97"/>
            <path class="cls-6" d="M33.33,36.13c-3.1,0-5.6,2.5-5.6,5.6s2.5,5.6,5.6,5.6,5.6-2.5,5.6-5.6-2.5-5.6-5.6-5.6ZM37.73,41.93c-.1,2.3-2,4.2-4.4,4.2s-4.3-1.9-4.4-4.2v-.2c0-2.4,2-4.4,4.4-4.4s4.4,2,4.4,4.4,0,.1,0,.2Z"/>
            <path class="cls-4" d="M33.33,38.38c-1.13,0-2.12.56-2.72,1.41.5-.31,1.09-.49,1.72-.49,1.85,0,3.34,1.5,3.34,3.34,0,.72-.23,1.38-.62,1.93.97-.59,1.62-1.64,1.62-2.85,0-1.85-1.5-3.34-3.34-3.34Z"/>
            <path class="cls-13" d="M32.33,39.3c-.63,0-1.22.19-1.72.49-.39.55-.62,1.21-.62,1.93,0,1.85,1.5,3.34,3.34,3.34.63,0,1.22-.19,1.72-.49.39-.55.62-1.21.62-1.93,0-1.85-1.5-3.34-3.34-3.34Z"/>
            <path class="cls-5" d="M33.23,43.05c-1,0-1.8-.8-1.9-1.8v.2c0,1.1.9,2,2,2s2-.9,2-2,0-.1,0-.2c-.1,1-.9,1.8-1.9,1.8h-.2Z"/>
            <path class="cls-17" d="M33.23,41.59s-.2,0-.2.2.3.2.3,0,0-.2-.2-.2h.1Z"/>
            <path class="cls-16" d="M33.23,39.39c-.8,0-1.4.6-1.4,1.4s.6,1.4,1.4,1.4,1.4-.6,1.4-1.4-.6-1.4-1.4-1.4ZM33.03,40.79s0-.2.2-.2.2,0,.2.2-.3.2-.3,0h-.1Z"/>
            <path class="cls-7" d="M33.23,39.85c-.8,0-1.4.6-1.4,1.4s.6,1.4,1.4,1.4,1.4-.6,1.4-1.4-.6-1.4-1.4-1.4ZM33.03,41.25s0-.2.2-.2.2,0,.2.2-.3.2-.3,0h-.1Z"/>
          </g>
        </g>
        <g>
          <path class="cls-7" d="M50.92,21.31h-4.27v-5.41h4.27v5.41ZM47.4,20.56h2.77v-3.91h-2.77v3.91Z"/>
          <path class="cls-7" d="M34.53,21.31h-4.27v-3.5c0-1.05.85-1.9,1.9-1.9h2.36v5.41ZM31.01,20.56h2.77v-3.91h-1.61c-.64,0-1.15.52-1.15,1.15v2.75Z"/>
          <path class="cls-7" d="M39.91,21.31h-4.27v-5.41h4.27v5.41ZM36.4,20.56h2.77v-3.91h-2.77v3.91Z"/>
          <path class="cls-7" d="M45.3,21.31h-4.27v-5.41h4.27v5.41ZM41.78,20.56h2.77v-3.91h-2.77v3.91Z"/>
        </g>
        <g>
          <path class="cls-7" d="M93.73,15.9h4.27v5.41h-4.27v-5.41ZM97.25,16.65h-2.77s0,3.91,0,3.91h2.77s0-3.91,0-3.91Z"/>
          <path class="cls-7" d="M110.12,15.9h2.36c1.05,0,1.9.85,1.9,1.9v3.5h-4.27v-5.41ZM113.64,17.81c0-.64-.52-1.15-1.15-1.15h-1.61s0,3.91,0,3.91h2.77s0-2.75,0-2.75Z"/>
          <path class="cls-7" d="M104.74,15.9h4.27v5.41h-4.27v-5.41ZM108.25,16.65h-2.77s0,3.91,0,3.91h2.77s0-3.91,0-3.91Z"/>
          <path class="cls-7" d="M99.35,15.9h4.27v5.41h-4.27v-5.41ZM102.87,16.65h-2.77s0,3.91,0,3.91h2.77s0-3.91,0-3.91Z"/>
        </g>
        <g>
          <rect class="cls-14" x="55.82" y="17.49" width="10.67" height=".66"/>
          <rect class="cls-23" x="56.25" y="7.11" width="10.67" height=".66"/>
          <rect class="cls-23" x="56.65" y="3.96" width="10.5" height=".73"/>
          <rect class="cls-23" x="78.42" y="7.11" width="10.67" height=".66"/>
          <rect class="cls-23" x="77.82" y="4.03" width="10.67" height=".66"/>
          <rect class="cls-14" x="55.82" y="23.12" width="10.67" height=".66"/>
          <rect class="cls-14" x="55.82" y="28.74" width="10.67" height=".66"/>
        </g>
        <g>
          <rect class="cls-14" x="78.61" y="17.49" width="10.67" height=".66"/>
          <rect class="cls-14" x="78.61" y="23.12" width="10.67" height=".66"/>
          <rect class="cls-14" x="78.61" y="28.74" width="10.67" height=".66"/>
        </g>
      </g>
      <path class="cls-18" d="M21.14,23.26s-.69.52-.69,1.7l.14,16.29h.61c.43,0,.81-.3.92-.72l.96-3.91-1.88.03-.07-5.28,2.88-5.62v-6.16l-2.88,3.66Z"/>
      <path class="cls-18" d="M123.56,23.26s.69.52.69,1.7l-.14,16.29h-.61c-.43,0-.81-.3-.92-.72l-.96-3.91,1.88.03.07-5.28-2.88-5.62v-6.16s2.88,3.66,2.88,3.66Z"/>
    </g>
  </g>
</svg>